<?xml version="1.0" encoding="UTF-8"?>
<svg version="1.1" xmlns="http://www.w3.org/2000/svg" width="500" height="500">
<path d="M0 0 C2.44043848 2.66922959 2.98242932 4.20931958 3.0625 7.8125 C0.52182195 15.43453416 -5.95837587 21.88366965 -12 27 C-12.66 27 -13.32 27 -14 27 C-14.66 28.32 -15.32 29.64 -16 31 C-16.66 31 -17.32 31 -18 31 C-18.2371875 31.56203125 -18.474375 32.1240625 -18.71875 32.703125 C-20.28947697 35.51894042 -22.21471464 37.47955416 -24.5 39.75 C-25.2940625 40.54921875 -26.088125 41.3484375 -26.90625 42.171875 C-29 44 -29 44 -31 44 C-31.38671875 44.87398437 -31.38671875 44.87398437 -31.78125 45.765625 C-33.09834017 48.1802903 -34.55088384 49.81740177 -36.5 51.75 C-37.1084375 52.36359375 -37.716875 52.9771875 -38.34375 53.609375 C-40 55 -40 55 -42 55 C-42 55.66 -42 56.32 -42 57 C-42.66 57 -43.32 57 -44 57 C-44.2371875 57.56203125 -44.474375 58.1240625 -44.71875 58.703125 C-46.28947697 61.51894042 -48.21471464 63.47955416 -50.5 65.75 C-51.2940625 66.54921875 -52.088125 67.3484375 -52.90625 68.171875 C-55 70 -55 70 -57 70 C-57.35578125 70.84304687 -57.35578125 70.84304687 -57.71875 71.703125 C-59.28947697 74.51894042 -61.21471464 76.47955416 -63.5 78.75 C-64.2940625 79.54921875 -65.088125 80.3484375 -65.90625 81.171875 C-68 83 -68 83 -70 83 C-70.26876953 83.59329102 -70.53753906 84.18658203 -70.81445312 84.79785156 C-72.00290732 87.00540033 -73.20742389 88.46542882 -74.96875 90.234375 C-75.53980469 90.80800781 -76.11085938 91.38164062 -76.69921875 91.97265625 C-77.29347656 92.55917969 -77.88773437 93.14570313 -78.5 93.75 C-79.09425781 94.35199219 -79.68851562 94.95398438 -80.30078125 95.57421875 C-80.87183594 96.14269531 -81.44289062 96.71117187 -82.03125 97.296875 C-82.55267578 97.81604492 -83.07410156 98.33521484 -83.61132812 98.87011719 C-85 100 -85 100 -87 100 C-87.20625 100.53625 -87.4125 101.0725 -87.625 101.625 C-88.94328845 103.90204368 -90.22066791 105.32317369 -92.0859375 107.1484375 C-92.90263916 107.951604 -92.90263916 107.951604 -93.73583984 108.77099609 C-94.1530127 109.17656738 -94.57018555 109.58213867 -95 110 C-93.8238595 110.00238835 -92.647719 110.00477671 -91.43593788 110.00723743 C-63.4934813 110.0646432 -35.55109724 110.13740632 -7.60873113 110.22898628 C-4.16672606 110.24025394 -0.72472059 110.25139248 2.71728516 110.26245117 C3.7451126 110.2657567 3.7451126 110.2657567 4.79370423 110.269129 C15.87702967 110.30446565 26.96035505 110.32935026 38.04371588 110.35034702 C49.42303612 110.37213807 60.80227266 110.4054409 72.18153536 110.44870156 C78.57024822 110.47262676 84.95888055 110.49136023 91.34763718 110.49761391 C97.36404929 110.50366781 103.38025538 110.52367924 109.39659119 110.55427551 C111.60157973 110.56305074 113.8065952 110.56677939 116.01160049 110.56500816 C119.02989194 110.56334953 122.04755972 110.58010534 125.06576538 110.60127258 C125.93155507 110.59642501 126.79734477 110.59157743 127.68937051 110.58658296 C138.09653769 110.70644269 146.56474181 113.61981779 154 121 C161.05498328 129.5090638 163.30342008 136.39744885 163.26069641 147.31051636 C163.26452196 148.34722068 163.26834751 149.383925 163.27228898 150.45204461 C163.28260555 153.92494984 163.27862932 157.39768934 163.2746582 160.87060547 C163.27900542 163.36094313 163.2841886 165.85127944 163.29014587 168.34161377 C163.3021544 174.403479 163.30468735 180.46527911 163.30234561 186.52715026 C163.3005615 191.45543352 163.30231409 196.38370336 163.30657005 201.31198502 C163.30716524 202.01380405 163.30776043 202.71562308 163.30837366 203.43870936 C163.30958543 204.8645323 163.31079956 206.29035525 163.31201603 207.71617819 C163.32288921 221.08376595 163.32073019 234.45132847 163.31463119 247.81891765 C163.30946278 260.04136503 163.32071583 272.2637327 163.33972941 284.48616432 C163.35911324 297.04309824 163.36736282 309.59999446 163.36360615 322.15694344 C163.36169486 329.20391788 163.36417458 336.25082449 163.37832069 343.29778671 C163.39148954 349.92487664 163.38896704 356.55183341 163.37590981 363.17893219 C163.37354164 365.61053903 163.37628725 368.04215706 163.38453293 370.47375107 C163.39498144 373.79452512 163.38691436 377.11476163 163.3742218 380.43551636 C163.38159609 381.39642177 163.38897037 382.35732719 163.39656812 383.34735096 C163.3291386 391.74041844 161.54401132 397.98756482 155.625 404.25 C154.87476563 405.05953125 154.12453125 405.8690625 153.3515625 406.703125 C145.34931762 414.51927116 137.52021268 417.159536 126.50981617 417.13142776 C125.76078174 417.1334804 125.01174732 417.13553303 124.24001488 417.13764787 C121.7219899 417.14331684 119.20401963 417.14186074 116.68598938 417.14044189 C114.86563863 417.14302559 113.04528845 417.14603876 111.22493905 417.1494453 C106.21604347 417.15751804 101.20716222 417.15930502 96.1982609 417.16004276 C90.7986485 417.16189283 85.39904353 417.16943993 79.99943542 417.17617798 C68.18952037 417.18976368 56.3796087 417.19578636 44.56968713 417.20018864 C37.19664135 417.2029506 29.82359688 417.20718787 22.45055199 417.21169281 C2.03988 417.22388568 -18.37079093 417.23418503 -38.78146648 417.2375679 C-40.74120591 417.23789725 -40.74120591 417.23789725 -42.74053602 417.23823325 C-44.05016794 417.23845153 -45.35979986 417.23866981 -46.70911759 417.2388947 C-49.36296316 417.23933817 -52.01680873 417.23978473 -54.6706543 417.24023438 C-56.64525597 417.24056652 -56.64525597 417.24056652 -58.65974859 417.24090537 C-79.99223015 417.24485375 -101.32467049 417.26230892 -122.65713992 417.2855939 C-144.55472816 417.30930295 -166.45229926 417.32176955 -188.34990054 417.32293582 C-200.64626189 417.32385282 -212.94257874 417.32961145 -225.23892784 417.34775543 C-235.70916823 417.36315036 -246.17935037 417.36828044 -256.64959993 417.36001733 C-261.99154534 417.35610873 -267.33337342 417.3570508 -272.67530441 417.37107468 C-277.56759822 417.38380069 -282.45968636 417.38262741 -287.35197983 417.37048396 C-289.11983167 417.36852473 -290.88769801 417.37161586 -292.65552946 417.38032833 C-304.15247662 417.43339221 -314.51450757 417.3296987 -324 410 C-324.99 409.29875 -325.98 408.5975 -327 407.875 C-331.93155419 403.69814275 -335.71190518 397.32401917 -337 391 C-337.08908266 389.52314987 -337.12901932 388.04287548 -337.13142776 386.56334305 C-337.13526891 385.67552997 -337.13911005 384.78771689 -337.1430676 383.87300038 C-337.14220112 382.90180784 -337.14133463 381.9306153 -337.14044189 380.92999268 C-337.14341302 379.8949972 -337.14638414 378.86000173 -337.1494453 377.79364276 C-337.15813879 374.31456882 -337.1596411 370.83552926 -337.16113281 367.35644531 C-337.16576052 364.86640347 -337.17078511 362.37636233 -337.17617798 359.88632202 C-337.18930839 353.11350915 -337.19578487 346.34070975 -337.20018864 339.56788731 C-337.20295237 335.33784675 -337.20718997 331.10780848 -337.21169281 326.87776947 C-337.22388458 315.16301746 -337.23418402 303.44826728 -337.2375679 291.73350906 C-337.23778747 290.98388879 -337.23800703 290.23426851 -337.23823325 289.46193247 C-337.23845153 288.71053175 -337.23866981 287.95913104 -337.2388947 287.1849606 C-337.23933817 285.66236957 -337.23978473 284.13977853 -337.24023438 282.6171875 C-337.2404558 281.86193184 -337.24067723 281.10667617 -337.24090537 280.32853398 C-337.24485267 268.09303069 -337.26230501 255.85758698 -337.2855939 243.6221067 C-337.30931839 231.05620117 -337.32177025 218.49032552 -337.32293582 205.92439723 C-337.32385197 198.87067974 -337.32958919 191.81703989 -337.34775543 184.76334381 C-337.36478396 178.12808184 -337.36640082 171.49294112 -337.35761642 164.85765457 C-337.35684503 162.42282085 -337.36120214 159.98797927 -337.37107468 157.55316544 C-337.38376654 154.22791498 -337.37793191 150.90318868 -337.36749268 147.57794189 C-337.37554908 146.61567224 -337.38360548 145.65340258 -337.39190602 144.66197324 C-337.31760152 134.5337251 -333.858676 127.42221451 -327 120 C-316.9384915 110.57373949 -305.74107868 110.55400593 -292.73022461 110.56762695 C-290.98506989 110.55860019 -289.23992149 110.54827073 -287.49478149 110.53674316 C-282.77850577 110.50925443 -278.06235063 110.49989971 -273.3460052 110.49388909 C-268.40921584 110.48448423 -263.4725158 110.45827914 -258.53578186 110.43388367 C-249.19690879 110.39027304 -239.85805311 110.36169269 -230.51910931 110.33856028 C-219.88301754 110.31147945 -209.24701585 110.26756972 -198.6109885 110.22227156 C-176.74070751 110.12950316 -154.87039956 110.05778671 -133 110 C-133.5775 109.44570312 -134.155 108.89140625 -134.75 108.3203125 C-135.4925 107.59585938 -136.235 106.87140625 -137 106.125 C-137.7425 105.40570313 -138.485 104.68640625 -139.25 103.9453125 C-141 102 -141 102 -141 100 C-141.66 100 -142.32 100 -143 100 C-143 99.34 -143 98.68 -143 98 C-143.66 98 -144.32 98 -145 98 C-145 97.34 -145 96.68 -145 96 C-145.58265625 95.7421875 -146.1653125 95.484375 -146.765625 95.21875 C-149.1802903 93.90165983 -150.81740177 92.44911616 -152.75 90.5 C-153.36359375 89.8915625 -153.9771875 89.283125 -154.609375 88.65625 C-156 87 -156 87 -156 85 C-156.66 85 -157.32 85 -158 85 C-158 84.34 -158 83.68 -158 83 C-158.58265625 82.7421875 -159.1653125 82.484375 -159.765625 82.21875 C-162.1802903 80.90165983 -163.81740177 79.44911616 -165.75 77.5 C-166.36359375 76.8915625 -166.9771875 76.283125 -167.609375 75.65625 C-169 74 -169 74 -169 72 C-169.66 72 -170.32 72 -171 72 C-171 71.34 -171 70.68 -171 70 C-171.66 70 -172.32 70 -173 70 C-173 69.34 -173 68.68 -173 68 C-173.58265625 67.7421875 -174.1653125 67.484375 -174.765625 67.21875 C-177.1802903 65.90165983 -178.81740177 64.44911616 -180.75 62.5 C-181.36359375 61.8915625 -181.9771875 61.283125 -182.609375 60.65625 C-184 59 -184 59 -184 57 C-184.66 57 -185.32 57 -186 57 C-186 56.34 -186 55.68 -186 55 C-186.5775 54.79375 -187.155 54.5875 -187.75 54.375 C-190.97708737 52.40289105 -192.28965523 50.35734344 -194 47 C-193.82967999 43.59359971 -193.52575631 41.05151261 -192 38 C-191.34 38 -190.68 38 -190 38 C-190 37.34 -190 36.68 -190 36 C-185.49925419 34.95331493 -183.10255808 34.86197229 -179 37 C-176.70243769 38.88776826 -174.63920696 40.98153396 -172.55737305 43.10205078 C-171.9324144 43.72657135 -171.30745575 44.35109192 -170.66355896 44.99453735 C-168.60575196 47.05442939 -166.55876698 49.12473307 -164.51171875 51.1953125 C-163.08462486 52.62800333 -161.65686587 54.06003195 -160.22846985 55.49142456 C-156.47521065 59.2561247 -152.73104882 63.02974768 -148.9887085 66.80529785 C-145.16654432 70.65817883 -141.33584764 74.50255558 -137.50585938 78.34765625 C-129.99552937 85.8901372 -122.4947824 93.44207179 -115 101 C-112.77382267 99.94645929 -111.12920379 99.12920379 -109.375 97.375 C-108.92125 96.92125 -108.4675 96.4675 -108 96 C-107.34 96 -106.68 96 -106 96 C-106 95.34 -106 94.68 -106 94 C-105.34 94 -104.68 94 -104 94 C-103.61328125 93.12601563 -103.61328125 93.12601563 -103.21875 92.234375 C-101.90165983 89.8197097 -100.44911616 88.18259823 -98.5 86.25 C-97.8915625 85.63640625 -97.283125 85.0228125 -96.65625 84.390625 C-95 83 -95 83 -93 83 C-92.7525 82.38125 -92.505 81.7625 -92.25 81.125 C-90.76259631 78.59641373 -89.56321991 78.28160996 -87 77 C-86.7009375 76.39671875 -86.401875 75.7934375 -86.09375 75.171875 C-84.86390257 72.72974939 -83.43702936 71.17061385 -81.5 69.25 C-80.8915625 68.63640625 -80.283125 68.0228125 -79.65625 67.390625 C-78 66 -78 66 -76 66 C-76 65.34 -76 64.68 -76 64 C-75.34 64 -74.68 64 -74 64 C-73.61328125 63.12601563 -73.61328125 63.12601563 -73.21875 62.234375 C-71.90165983 59.8197097 -70.44911616 58.18259823 -68.5 56.25 C-67.8915625 55.63640625 -67.283125 55.0228125 -66.65625 54.390625 C-65 53 -65 53 -63 53 C-63 52.34 -63 51.68 -63 51 C-62.34 51 -61.68 51 -61 51 C-61 50.34 -61 49.68 -61 49 C-60.34 49 -59.68 49 -59 49 C-58.773125 48.443125 -58.54625 47.88625 -58.3125 47.3125 C-56.62449964 44.33840412 -54.53323483 42.27991135 -52 40 C-51.34 40 -50.68 40 -50 40 C-50 39.34 -50 38.68 -50 38 C-49.34 38 -48.68 38 -48 38 C-47.61328125 37.12601563 -47.61328125 37.12601563 -47.21875 36.234375 C-45.90165983 33.8197097 -44.44911616 32.18259823 -42.5 30.25 C-41.8915625 29.63640625 -41.283125 29.0228125 -40.65625 28.390625 C-39 27 -39 27 -37 27 C-36.7525 26.38125 -36.505 25.7625 -36.25 25.125 C-34.76259631 22.59641373 -33.56321991 22.28160996 -31 21 C-29.90833725 19.06669397 -29.90833725 19.06669397 -29 17 C-27.5 15.25 -27.5 15.25 -26 14 C-25.34 14 -24.68 14 -24 14 C-23.62875 13.071875 -23.62875 13.071875 -23.25 12.125 C-21.76259631 9.59641373 -20.56321991 9.28160996 -18 8 C-17.690625 7.38125 -17.38125 6.7625 -17.0625 6.125 C-15.3555985 2.711197 -12.59870639 0.69277277 -9.125 -0.8125 C-5.83778965 -1.10254797 -3.20199868 -0.81505421 0 0 Z M-294 161 C-302.07467046 171.17603048 -302.43954852 182.03883837 -302.38818359 194.56030273 C-302.39225409 196.23011619 -302.39759864 197.89992696 -302.40411377 199.56973267 C-302.41773742 204.08425775 -302.41250898 208.5985761 -302.40297651 213.11310458 C-302.39535292 217.85031593 -302.40243312 222.58751021 -302.40713501 227.32472229 C-302.41258525 235.27942057 -302.40542073 243.23403515 -302.39111328 251.1887207 C-302.3747938 260.36769144 -302.38007313 269.54646217 -302.3965925 278.72542804 C-302.41023495 286.62380694 -302.41211339 294.52212585 -302.40427649 302.42051274 C-302.3996144 307.13013646 -302.39893456 311.83966639 -302.40888596 316.54928398 C-302.41759338 320.97925613 -302.41146517 325.40897211 -302.39420319 329.83891678 C-302.39025818 331.4585649 -302.39133808 333.07823481 -302.39799118 334.69787407 C-302.4508873 348.8905735 -300.61209031 359.00238316 -291 370 C-284.34458108 376.44201872 -274.52978536 381.11480949 -265.21063232 381.13422108 C-264.21867513 381.13867892 -263.22671793 381.14313676 -262.20470142 381.14772969 C-261.112023 381.14754533 -260.01934458 381.14736097 -258.89355469 381.14717102 C-257.73494021 381.15084771 -256.57632574 381.1545244 -255.38260174 381.1583125 C-252.16116161 381.16744066 -248.93975143 381.17204935 -245.71830058 381.17470181 C-242.24570979 381.17860494 -238.77313375 381.18818345 -235.30055237 381.19691467 C-226.91013339 381.21668154 -218.5197132 381.22674676 -210.12927675 381.23564246 C-206.17679039 381.24002605 -202.22430537 381.24539278 -198.27182007 381.25063133 C-185.12967711 381.26764581 -171.98753498 381.28213863 -158.84538269 381.28938007 C-155.43451944 381.29128994 -152.02365619 381.29321027 -148.61279297 381.29516602 C-147.76504968 381.29564976 -146.91730639 381.2961335 -146.04387391 381.2966319 C-132.31978512 381.30492707 -118.59578364 381.33025432 -104.87173295 381.36274669 C-90.77693843 381.39584423 -76.68218823 381.41383137 -62.58735466 381.41702431 C-54.67557234 381.4191872 -46.76391725 381.42790305 -38.85217285 381.45348549 C-32.11193458 381.47522956 -25.37185443 381.48322485 -18.63158506 381.47351871 C-15.19522567 381.46898431 -11.75919223 381.47080923 -8.32287788 381.49028015 C-4.58908332 381.50799523 -0.85610996 381.50089338 2.87768555 381.48774719 C3.9525182 381.49871644 5.02735085 381.50968568 6.13475418 381.52098733 C16.11499353 381.4364319 26.21686888 378.55656318 34 372 C34 371.34 34 370.68 34 370 C34.66 370 35.32 370 36 370 C36 369.34 36 368.68 36 368 C36.66 368 37.32 368 38 368 C41.82228229 363.29565256 44.23480177 358.78460231 46 353 C46.26104082 352.16406201 46.26104082 352.16406201 46.52735519 351.31123638 C47.15945817 348.22024847 47.13286082 345.28145841 47.14044189 342.12568665 C47.14341302 341.43441514 47.14638414 340.74314363 47.1494453 340.0309245 C47.15811544 337.71502136 47.15963912 335.39917003 47.16113281 333.08325195 C47.16576224 331.42240794 47.17078707 329.76156498 47.17617798 328.10072327 C47.18929345 323.58810346 47.19574548 319.07549852 47.20018864 314.56286263 C47.20312123 311.74190525 47.20722644 308.92095191 47.21169281 306.09999657 C47.22536659 297.26922478 47.23503337 288.43846226 47.2388947 279.60768062 C47.24337283 269.42283096 47.26090987 259.23811568 47.2898953 249.05330688 C47.31153482 241.17544097 47.32160022 233.2976128 47.32293582 225.41971749 C47.32398238 220.71729788 47.32985829 216.0150046 47.34775543 211.31261635 C47.364275 206.88602428 47.36637281 202.45965298 47.35761642 198.033041 C47.35684808 196.41296674 47.36116194 194.79288042 47.37107468 193.1728363 C47.45856309 177.97701533 44.61250159 167.43094969 34.2109375 156.08203125 C25.56772013 147.94274705 15.71993765 146.70059422 4.35006714 146.72584534 C2.59688492 146.71799032 2.59688492 146.71799032 0.80828488 146.70997661 C-2.42309203 146.6975976 -5.65433375 146.69413233 -8.88572979 146.69457352 C-12.37602397 146.69292068 -15.86627895 146.67984539 -19.35655212 146.66838074 C-26.98279979 146.64556691 -34.60901956 146.63761391 -42.23529673 146.63255429 C-47.00159397 146.62929282 -51.76788318 146.62276759 -56.53417587 146.6155529 C-69.74338838 146.59599107 -82.95259344 146.57958463 -96.16182137 146.57667637 C-97.00650964 146.5764888 -97.85119792 146.57630123 -98.72148281 146.57610798 C-100.43370716 146.57574174 -102.14593151 146.57537804 -103.85815586 146.57501686 C-104.70805036 146.57483405 -105.55794487 146.57465124 -106.43359375 146.57446289 C-107.28453164 146.57428234 -108.13546954 146.57410179 -109.01219343 146.57391577 C-122.79290394 146.57037596 -136.57345802 146.54336382 -150.35411431 146.505965 C-164.51911249 146.46783234 -178.68403315 146.44851853 -192.84908378 146.44821686 C-200.7955462 146.44763337 -208.74182202 146.43921213 -216.68823624 146.41021919 C-223.45616635 146.38563874 -230.22384181 146.37846705 -236.99180456 146.39346672 C-240.44065392 146.40060882 -243.88900111 146.39989669 -247.33779335 146.37705612 C-266.00331495 146.27499907 -280.71795525 146.22838014 -294 161 Z " fill="#F9F9F8" transform="translate(337,42)"/>
<path d="M0 0 C4.95 0 9.9 0 15 0 C18.03075318 6.22052737 19.58506076 12.71080859 21.24603271 19.40820312 C22.10532205 22.86825543 22.98479779 26.32312003 23.8671875 29.77734375 C24.13313217 30.81856888 24.13313217 30.81856888 24.40444946 31.88082886 C26.80477862 41.21167623 29.54536598 50.44287485 32.30761719 59.671875 C33.23028175 62.77431832 34.11872004 65.88557374 35 69 C35.66 69 36.32 69 37 69 C41.63153759 53.39701578 45.99489467 37.73776131 50.19335938 22.01318359 C51.40587181 17.48387715 52.63304209 12.95881602 53.875 8.4375 C54.07818848 7.68742676 54.28137695 6.93735352 54.49072266 6.16455078 C55.88406946 1.11593054 55.88406946 1.11593054 57 0 C59.69654854 -0.07319621 62.36691458 -0.09242537 65.0625 -0.0625 C65.82111328 -0.05798828 66.57972656 -0.05347656 67.36132812 -0.04882812 C69.24091871 -0.0370068 71.12046899 -0.01907078 73 0 C70.85427963 8.90653764 68.54965127 17.73574639 65.92260742 26.51293945 C64.42219274 31.53305562 63.0055839 36.57074488 61.625 41.625 C59.60675426 48.96996996 57.45479696 56.27144508 55.25 63.5625 C54.94400879 64.58102051 54.63801758 65.59954102 54.32275391 66.64892578 C54.03577637 67.59106934 53.74879883 68.53321289 53.453125 69.50390625 C53.19692383 70.34767822 52.94072266 71.1914502 52.67675781 72.06079102 C52 74 52 74 51 75 C46.74293347 75.24189961 42.48021838 75.22849951 38.21704102 75.24023438 C36.07463839 75.24994498 33.93319303 75.28095753 31.79101562 75.3125 C30.43490155 75.31902936 29.07878059 75.3242801 27.72265625 75.328125 C26.48265869 75.3374707 25.24266113 75.34681641 23.96508789 75.35644531 C22.98660889 75.23881836 22.00812988 75.12119141 21 75 C18.96338757 71.94508136 18.2986275 69.82098177 17.4140625 66.29296875 C17.1253125 65.15666016 16.8365625 64.02035156 16.5390625 62.84960938 C16.23742187 61.64111328 15.93578125 60.43261719 15.625 59.1875 C14.99346978 56.70149682 14.36067299 54.21581503 13.7265625 51.73046875 C13.44377441 50.61051514 13.16098633 49.49056152 12.86962891 48.33666992 C11.96711639 44.87382921 10.99416827 41.43758855 10 38 C8.68732555 33.44842686 7.42882672 28.88973054 6.23828125 24.3046875 C5.92181641 23.08652344 5.60535156 21.86835938 5.27929688 20.61328125 C1.5 6 1.5 6 0 0 Z " fill="#7A58E3" transform="translate(61,314)"/>
<path d="M0 0 C2.24973447 -0.054138 4.49984383 -0.09285491 6.75 -0.125 C8.00296875 -0.14820313 9.2559375 -0.17140625 10.546875 -0.1953125 C13.77505744 -0.012723 15.43771265 0.09624444 18 2 C19.79974295 4.96969807 20.28146893 7.31819214 20.4140625 10.765625 C20.45273438 11.65507812 20.49140625 12.54453125 20.53125 13.4609375 C20.5621875 14.38132813 20.593125 15.30171875 20.625 16.25 C20.66367188 17.18585938 20.70234375 18.12171875 20.7421875 19.0859375 C20.83624844 21.39043054 20.92189399 23.69492013 21 26 C21.45375 25.34 21.9075 24.68 22.375 24 C22.91125 23.34 23.4475 22.68 24 22 C24.66 22 25.32 22 26 22 C26 21.34 26 20.68 26 20 C34.65749309 16.2429747 41.12745664 14.53223824 50.4375 17.4375 C57.95297918 20.42469186 64.51693362 25.80253504 68.5625 32.875 C72.29829962 41.79842659 71.2872862 51.17584393 68.2890625 60.12109375 C65.27915736 67.20403566 59.46528025 72.20318802 52.73046875 75.6953125 C48.52281721 77.16688906 45.04548166 77.57592705 40.625 77.5625 C39.87984131 77.5622583 39.13468262 77.5620166 38.36694336 77.56176758 C32.01800312 77.36438043 27.51332574 75.62587751 23 71 C22.34 70.01 21.68 69.02 21 68 C20.67 70.64 20.34 73.28 20 76 C16.04 76 12.08 76 8 76 C8 54.55 8 33.1 8 11 C5.36 11 2.72 11 0 11 C0 7.37 0 3.74 0 0 Z M27 30 C25.44033992 32.01979579 25.44033992 32.01979579 25 34 C24.34 34 23.68 34 23 34 C19.62974336 40.17880384 18.99959217 46.02493432 20 53 C22.17743303 58.33125469 25.98673292 63.55864521 31.25390625 66.078125 C36.09930938 67.70474682 40.95594999 67.56121045 46 67 C49.51662056 65.43559628 49.51662056 65.43559628 52 63 C52.7425 62.34 53.485 61.68 54.25 61 C58.96883187 55.60704929 58.48182437 49.678244 58.3125 42.87109375 C57.90973082 37.88179047 57.24955221 35.7626394 54 32 C45.59602956 25.48263517 36.37923307 25.31038347 27 30 Z " fill="#7E5BEB" transform="translate(199,211)"/>
<path d="M0 0 C4.13062837 2.90212252 6.84464678 6.6280423 8.8125 11.2734375 C9.05300903 13.46282959 9.05300903 13.46282959 9.03955078 15.85839844 C9.03939972 16.75903015 9.03924866 17.65966187 9.03909302 18.58758545 C9.02877045 19.55126038 9.01844788 20.5149353 9.0078125 21.5078125 C9.0049826 22.50097473 9.00215271 23.49413696 8.99923706 24.51739502 C8.98805143 27.68619894 8.96294962 30.85471915 8.9375 34.0234375 C8.92746812 36.173173 8.91834263 38.32291293 8.91015625 40.47265625 C8.88811736 45.73969247 8.85359842 51.0065169 8.8125 56.2734375 C4.8525 56.2734375 0.8925 56.2734375 -3.1875 56.2734375 C-3.6825 50.3334375 -3.6825 50.3334375 -4.1875 44.2734375 C-4.868125 45.1603125 -5.54875 46.0471875 -6.25 46.9609375 C-11.55161782 53.27807648 -17.40745525 56.69454242 -25.72265625 57.52734375 C-32.55125456 57.82507448 -38.22759497 56.70288006 -44.1875 53.2734375 C-48.4690432 48.9918943 -50.47780309 44.94579673 -50.5625 38.8984375 C-50.43631912 32.58098147 -48.42382875 29.50976625 -44 25.0859375 C-35.0893469 19.34351662 -24.46870763 19.21064877 -14.1875 18.2734375 C-12.99640625 18.16 -11.8053125 18.0465625 -10.578125 17.9296875 C-8.1153314 17.69999691 -5.65234307 17.47974595 -3.1875 17.2734375 C-3.50713489 14.30228594 -3.50713489 14.30228594 -5.1875 11.2734375 C-11.84841073 7.21444502 -20.38537042 7.41718854 -27.81640625 8.7421875 C-30.1727992 9.37761931 -32.10323735 10.00333995 -34.1875 11.2734375 C-35.86786511 14.30228594 -35.86786511 14.30228594 -36.1875 17.2734375 C-39.8175 17.2734375 -43.4475 17.2734375 -47.1875 17.2734375 C-48.54828253 13.19108991 -47.46519336 11.35244347 -45.6875 7.5625 C-37.15207894 -5.46290817 -12.81032753 -6.45091494 0 0 Z M-19.0625 28.0234375 C-20.04347656 28.0853125 -21.02445313 28.1471875 -22.03515625 28.2109375 C-27.90724385 28.68641018 -31.70523185 29.34507566 -36.1875 33.2734375 C-37.91370879 36.11718405 -37.91370879 36.11718405 -38.1875 39.2734375 C-36.65769295 42.92797656 -34.70188554 45.41862291 -31.1875 47.2734375 C-24.63011369 48.32261931 -19.54010946 45.84757158 -14.1875 42.2734375 C-10.14914306 38.52946546 -6.65809796 34.21463341 -4.1875 29.2734375 C-4.1875 28.6134375 -4.1875 27.9534375 -4.1875 27.2734375 C-9.17498444 27.2734375 -14.09226294 27.63463147 -19.0625 28.0234375 Z " fill="#7A59E4" transform="translate(191.1875,332.7265625)"/>
<path d="M0 0 C6.17952111 3.42508341 10.48926153 8.503105 12.75 15.1875 C14.25620818 21.15654722 14.83789869 27.35045837 14.875 33.5 C13.875 34.5 13.875 34.5 12.12229919 34.62025452 C11.36062943 34.61803391 10.59895966 34.61581329 9.81420898 34.61352539 C8.95339218 34.61344986 8.09257538 34.61337433 7.20567322 34.61329651 C6.27026199 34.60813522 5.33485077 34.60297394 4.37109375 34.59765625 C3.41807877 34.5962413 2.46506378 34.59482635 1.48316956 34.59336853 C-1.57375165 34.58775152 -4.63060077 34.57519616 -7.6875 34.5625 C-9.75455624 34.55748719 -11.82161362 34.55292391 -13.88867188 34.54882812 C-18.96747588 34.53777656 -24.0462257 34.52050055 -29.125 34.5 C-28.50091631 35.95947464 -27.87097004 37.41644343 -27.23852539 38.87231445 C-26.88834854 39.68392532 -26.53817169 40.49553619 -26.17738342 41.33174133 C-24.86486678 44.03596065 -23.898605 45.28437706 -21.125 46.5 C-17.79080186 46.93811922 -17.79080186 46.93811922 -14.1875 46.8125 C-12.37958984 46.80669922 -12.37958984 46.80669922 -10.53515625 46.80078125 C-7.23349493 46.50956943 -5.02036814 46.08629212 -2.125 44.5 C-0.70646815 42.82374051 -0.70646815 42.82374051 0.1875 40.875 C0.744375 39.76125 1.30125 38.6475 1.875 37.5 C5.505 37.5 9.135 37.5 12.875 37.5 C14.19267252 40.13534505 13.63347597 41.04582527 12.75 43.8125 C10.54573022 50.05459124 6.67293491 53.45608417 0.875 56.5 C-7.87504476 60.46228442 -17.3730352 60.16944088 -26.4609375 57.5078125 C-33.47883204 54.85294917 -36.94370163 51.21607433 -40.125 44.5 C-42.00901175 39.77296692 -42.5113991 35.42024144 -42.5 30.375 C-42.49838867 29.63088867 -42.49677734 28.88677734 -42.49511719 28.12011719 C-42.32155709 20.21462487 -40.38346738 13.43140618 -36.4375 6.5625 C-26.93047158 -1.91674157 -12.02516298 -4.73908333 0 0 Z M-27.0625 14.8125 C-28.4901744 18.11915889 -28.4901744 18.11915889 -29.125 24.5 C-19.225 24.5 -9.325 24.5 0.875 24.5 C-0.26212242 16.50765568 -0.26212242 16.50765568 -5.125 10.5 C-13.24692759 7.07074168 -21.20895696 7.82601315 -27.0625 14.8125 Z " fill="#7959DE" transform="translate(318.125,228.5)"/>
<path d="M0 0 C3.96 0 7.92 0 12 0 C12.01981934 1.10923828 12.03963867 2.21847656 12.06005859 3.36132812 C12.13656469 7.50640218 12.22521004 11.65114562 12.31738281 15.79589844 C12.35548767 17.58424313 12.39037162 19.37265965 12.421875 21.16113281 C12.46793013 23.74309835 12.52585428 26.32457725 12.5859375 28.90625 C12.59748871 29.69616333 12.60903992 30.48607666 12.62094116 31.29992676 C12.75626532 36.47722446 13.5848233 41.01460561 15 46 C15.66 46 16.32 46 17 46 C17 46.66 17 47.32 17 48 C27.69316228 48.66630997 27.69316228 48.66630997 37 44 C40.5091681 39.47978969 40.46934055 35.46696014 40.51171875 29.98046875 C40.52966995 29.12189774 40.54762115 28.26332672 40.56611633 27.3787384 C40.62010741 24.6483749 40.65407874 21.91818508 40.6875 19.1875 C40.720683 17.3313561 40.75517358 15.47523508 40.79101562 13.61914062 C40.87582734 9.07955262 40.94269177 4.54001514 41 0 C45.29 0 49.58 0 54 0 C54 16.17 54 32.34 54 49 C56.31 49 58.62 49 61 49 C62 50 62 50 62.09765625 52.06640625 C62.08605469 52.89011719 62.07445312 53.71382813 62.0625 54.5625 C62.05347656 55.38878906 62.04445313 56.21507812 62.03515625 57.06640625 C62.02355469 57.70449219 62.01195312 58.34257812 62 59 C59.41554227 59.1081866 56.83562648 59.18737237 54.25 59.25 C53.52039063 59.28351563 52.79078125 59.31703125 52.0390625 59.3515625 C48.41663613 59.4174248 46.42253687 59.31755877 43.484375 57.109375 C42 55 42 55 42 53 C41.52949219 53.34933594 41.05898437 53.69867188 40.57421875 54.05859375 C39.95160156 54.51363281 39.32898438 54.96867187 38.6875 55.4375 C38.07261719 55.88996094 37.45773438 56.34242188 36.82421875 56.80859375 C30.95227738 60.64358758 21.76965717 59.86451643 15 59 C9.24955223 57.09954714 5.29832566 54.2541581 2.4375 48.875 C0.7584616 44.87422907 -0.1269309 41.12561235 -0.11352539 36.78222656 C-0.11344986 35.96167786 -0.11337433 35.14112915 -0.11329651 34.29571533 C-0.10813522 33.41953552 -0.10297394 32.54335571 -0.09765625 31.640625 C-0.0962413 30.73624695 -0.09482635 29.8318689 -0.09336853 28.90008545 C-0.08777911 26.01668973 -0.07522853 23.13337218 -0.0625 20.25 C-0.05748363 18.29296987 -0.05292096 16.33593853 -0.04882812 14.37890625 C-0.03781313 9.58590747 -0.02055574 4.79296698 0 0 Z " fill="#7B59E6" transform="translate(207,330)"/>
<path d="M0 0 C3.96 0 7.92 0 12 0 C12.01981934 1.25135742 12.03963867 2.50271484 12.06005859 3.79199219 C12.13615293 8.436402 12.22486463 13.08050008 12.31738281 17.72460938 C12.35565669 19.73431238 12.39051236 21.74408351 12.421875 23.75390625 C12.46755991 26.6434768 12.52554887 29.53257896 12.5859375 32.421875 C12.59748871 33.31992859 12.60903992 34.21798218 12.62094116 35.14324951 C12.64081085 35.98381897 12.66068054 36.82438843 12.68115234 37.69042969 C12.69447601 38.42767273 12.70779968 39.16491577 12.7215271 39.92449951 C13.04356236 42.32467683 13.73251435 43.94330668 15 46 C15.66 46.33 16.32 46.66 17 47 C17 47.66 17 48.32 17 49 C27.35849896 48.99615897 27.35849896 48.99615897 36 44 C39.5730406 38.08600176 40.15936639 32.96617907 40.31640625 26.171875 C40.33718735 25.42286926 40.35796844 24.67386353 40.37937927 23.90216064 C40.44457088 21.51819712 40.50361783 19.13412688 40.5625 16.75 C40.60571416 15.13019746 40.64932937 13.51040557 40.69335938 11.890625 C40.80022096 7.92719168 40.90157333 3.9636514 41 0 C44.96 0 48.92 0 53 0 C53 16.17 53 32.34 53 49 C55.31 49 57.62 49 60 49 C61 50 61 50 61.09765625 52.28515625 C61.08605469 53.20167969 61.07445312 54.11820312 61.0625 55.0625 C61.05347656 55.98160156 61.04445312 56.90070313 61.03515625 57.84765625 C61.02355469 58.55792969 61.01195312 59.26820313 61 60 C58.77144426 60.0814222 56.54202345 60.13938079 54.3125 60.1875 C52.45044922 60.23970703 52.45044922 60.23970703 50.55078125 60.29296875 C46.77607733 59.98152453 44.97909558 59.27813191 42 57 C40.6875 54.8125 40.6875 54.8125 40 53 C39.154375 53.78375 38.30875 54.5675 37.4375 55.375 C32.64346831 59.33821589 27.37248862 60.41875948 21.1875 60.26171875 C15.7268788 59.60839443 10.57133615 58.04755743 6 55 C6 54.34 6 53.68 6 53 C5.34 53 4.68 53 4 53 C0.17838881 46.54689876 -0.55322339 41.80217737 -0.390625 34.375 C-0.38496521 33.38749756 -0.37930542 32.39999512 -0.37347412 31.38256836 C-0.35123369 28.25453482 -0.30106027 25.12768239 -0.25 22 C-0.22991907 19.86850622 -0.2116711 17.73699434 -0.1953125 15.60546875 C-0.15140929 10.40319658 -0.08246753 5.20179796 0 0 Z " fill="#7D5AEC" transform="translate(132,227)"/>
<path d="M0 0 C5.98200834 3.87071128 11.00330809 9.18553932 13.1875 16.0625 C14.19703708 23.4832531 12.00757675 28.6919875 8.5 35.1875 C4.80765974 39.77797707 0.03441677 42.96899267 -5.8125 44.0625 C-12.66020883 44.77289156 -18.19029074 44.22968616 -23.8125 40.0625 C-29.99667121 34.32963911 -32.75571323 29.25907384 -33.3125 20.8125 C-33.18157831 14.40606522 -30.84817588 9.95289326 -26.8125 5.0625 C-19.14227904 -1.97662683 -9.82950131 -2.41709049 0 0 Z " fill="#74777F" transform="translate(447.8125,312.9375)"/>
<path d="M0 0 C6.6004734 3.43843757 11.02526355 7.91996377 13.39453125 15.08984375 C14.465742 24.81793209 13.19734482 31.33632679 7.14453125 38.90234375 C1.30494629 43.54746815 -4.52712559 44.67932195 -11.9296875 44.43359375 C-18.68581026 43.56565389 -23.22982141 40.23457956 -27.3515625 34.93359375 C-31.42230573 28.94795262 -32.74554146 23.19086807 -31.60546875 16.08984375 C-29.0032427 8.89613441 -24.15641579 3.2749011 -17.24609375 -0.04296875 C-11.68395354 -1.86958876 -5.54047575 -1.93542856 0 0 Z " fill="#2FB57D" transform="translate(446.60546875,255.91015625)"/>
<path d="M0 0 C17.82 0 35.64 0 54 0 C54 3.63 54 7.26 54 11 C47.73191505 14.13404247 40.00793201 12 33 12 C33 33.12 33 54.24 33 76 C29.04 76 25.08 76 21 76 C21 54.88 21 33.76 21 12 C14.73 12 8.46 12 2 12 C1.34 11.67 0.68 11.34 0 11 C0 7.37 0 3.74 0 0 Z " fill="#8356EC" transform="translate(71,211)"/>
<path d="M0 0 C3.96 0 7.92 0 12 0 C12 2.64 12 5.28 12 8 C16.62 8 21.24 8 26 8 C26 11.3 26 14.6 26 18 C21.38 18 16.76 18 12 18 C12 30.54 12 43.08 12 56 C16.95 56 21.9 56 27 56 C28 57 28 57 28.09765625 59.28515625 C28.08605469 60.20167969 28.07445312 61.11820312 28.0625 62.0625 C28.05347656 62.98160156 28.04445313 63.90070313 28.03515625 64.84765625 C28.02355469 65.55792969 28.01195312 66.26820313 28 67 C24.08358289 67.11618764 20.16760899 67.18724654 16.25 67.25 C15.13882812 67.28351563 14.02765625 67.31703125 12.8828125 67.3515625 C11.81289063 67.36445313 10.74296875 67.37734375 9.640625 67.390625 C8.16384277 67.4220459 8.16384277 67.4220459 6.65722656 67.45410156 C4 67 4 67 1.671875 65.61523438 C-0.95327735 61.50883368 -0.49280927 57.53538744 -0.390625 52.765625 C-0.38213531 51.27588165 -0.38213531 51.27588165 -0.37347412 49.75604248 C-0.35110026 46.58686941 -0.30090106 43.4188308 -0.25 40.25 C-0.22993635 38.10027676 -0.21168534 35.95053577 -0.1953125 33.80078125 C-0.15123197 28.53341768 -0.08219654 23.26690112 0 18 C-2.97 18 -5.94 18 -9 18 C-9 14.7 -9 11.4 -9 8 C-6.03 8 -3.06 8 0 8 C0 5.36 0 2.72 0 0 Z " fill="#7655D8" transform="translate(316,322)"/>
<path d="M0 0 C1.89551022 -0.05441656 3.7914792 -0.09298035 5.6875 -0.125 C6.74324219 -0.14820313 7.79898437 -0.17140625 8.88671875 -0.1953125 C13.17063107 0.07343984 15.95267383 0.95267383 19 4 C19.24050903 6.63223267 19.24050903 6.63223267 19.22705078 10.01025391 C19.22689972 11.27141022 19.22674866 12.53256653 19.22659302 13.8319397 C19.21637898 15.21348222 19.20594697 16.59502315 19.1953125 17.9765625 C19.19158288 19.38617757 19.18873567 20.79579523 19.18673706 22.20541382 C19.17909655 25.91759382 19.15944461 29.62961761 19.1373291 33.34173584 C19.11687959 37.12884406 19.10773727 40.9159775 19.09765625 44.703125 C19.076199 52.13548793 19.04205816 59.56772208 19 67 C21.64 67 24.28 67 27 67 C27 70.3 27 73.6 27 77 C18.09 77 9.18 77 0 77 C0 73.7 0 70.4 0 67 C2.31 67 4.62 67 7 67 C7 48.19 7 29.38 7 10 C4.69 10 2.38 10 0 10 C0 6.7 0 3.4 0 0 Z " fill="#7E5BEA" transform="translate(274,312)"/>
<path d="M0 0 C0.33 0 0.66 0 1 0 C1 21.12 1 42.24 1 64 C4.3 64 7.6 64 11 64 C11 60.37 11 56.74 11 53 C12.65 52.34 14.3 51.68 16 51 C16.33 50.34 16.66 49.68 17 49 C17.556875 49.61875 18.11375 50.2375 18.6875 50.875 C23.58917531 55.37924218 28.72399605 55.42632132 35.1171875 55.32421875 C38.97080625 54.89081718 41.13555757 53.57065346 44 51 C44.5775 50.505 45.155 50.01 45.75 49.5 C49.21648555 45.34021735 49.33645903 41.31911204 49.3125 36.0625 C49.33666992 35.00772461 49.33666992 35.00772461 49.36132812 33.93164062 C49.36559759 29.37612235 48.59084605 26.71195094 46 23 C46 22.34 46 21.68 46 21 C42.99049877 19.38274466 40.02896392 18.32417377 36.75 17.375 C35.85796875 17.11460937 34.9659375 16.85421875 34.046875 16.5859375 C33.37140625 16.39257812 32.6959375 16.19921875 32 16 C32.66 15.34 33.32 14.68 34 14 C34.99 14 35.98 14 37 14 C37 13.34 37 12.68 37 12 C38.65 11.34 40.3 10.68 42 10 C42 9.67 42 9.34 42 9 C40.02 8.67 38.04 8.34 36 8 C35.67 8.66 35.34 9.32 35 10 C34.505 8.515 34.505 8.515 34 7 C32.02 7 30.04 7 28 7 C28 6.34 28 5.68 28 5 C38.03110056 4.34222291 45.71517458 6.67466703 53.4375 13.25 C59.95199613 19.59904861 62.51945098 25.10519655 63.03515625 34.19921875 C62.92860901 42.68748227 60.84927663 50.85978967 54.984375 57.16796875 C48.21134598 63.49176625 41.91106505 66.59070607 32.625 66.5625 C31.87984131 66.5622583 31.13468262 66.5620166 30.36694336 66.56176758 C24.01800312 66.36438043 19.51332574 64.62587751 15 60 C14.34 59.01 13.68 58.02 13 57 C12.67 59.64 12.34 62.28 12 65 C8.04 65 4.08 65 0 65 C0 43.55 0 22.1 0 0 Z " fill="#7E5AEE" transform="translate(207,222)"/>
<path d="M0 0 C6.90244845 5.13333351 10.37928036 10.94862241 11.859375 19.3828125 C12.39189408 23.71074027 12.83305144 28.01968245 12.859375 32.3828125 C11.859375 33.3828125 11.859375 33.3828125 10.10667419 33.50306702 C9.34500443 33.50084641 8.58333466 33.49862579 7.79858398 33.49633789 C6.93776718 33.49626236 6.07695038 33.49618683 5.19004822 33.49610901 C4.25463699 33.49094772 3.31922577 33.48578644 2.35546875 33.48046875 C1.40245377 33.4790538 0.44943878 33.47763885 -0.53245544 33.47618103 C-3.58937665 33.47056402 -6.64622577 33.45800866 -9.703125 33.4453125 C-11.77018124 33.44029969 -13.83723862 33.43573641 -15.90429688 33.43164062 C-20.98310088 33.42058906 -26.0618507 33.40331305 -31.140625 33.3828125 C-30.810625 35.0328125 -30.480625 36.6828125 -30.140625 38.3828125 C-31.130625 38.3828125 -32.120625 38.3828125 -33.140625 38.3828125 C-33.140625 36.4028125 -33.140625 34.4228125 -33.140625 32.3828125 C-26.07173722 31.53066471 -19.1317418 31.25534795 -12.015625 31.3203125 C-10.58089844 31.32708008 -10.58089844 31.32708008 -9.1171875 31.33398438 C-6.79159742 31.34561233 -4.4661474 31.36195148 -2.140625 31.3828125 C-2.140625 29.4028125 -2.140625 27.4228125 -2.140625 25.3828125 C-12.040625 25.7128125 -21.940625 26.0428125 -32.140625 26.3828125 C-31.810625 25.0628125 -31.480625 23.7428125 -31.140625 22.3828125 C-21.240625 22.7128125 -11.340625 23.0428125 -1.140625 23.3828125 C-3.11340872 13.93592896 -3.11340872 13.93592896 -7.140625 10.3828125 C-12.7032861 8.03413337 -17.32235485 7.49401307 -22.953125 9.7578125 C-26.20597131 11.01872856 -26.20597131 11.01872856 -27.140625 13.3828125 C-27.800625 13.3828125 -28.460625 13.3828125 -29.140625 13.3828125 C-29.140625 11.7328125 -29.140625 10.0828125 -29.140625 8.3828125 C-27.820625 8.3828125 -26.500625 8.3828125 -25.140625 8.3828125 C-25.140625 7.7228125 -25.140625 7.0628125 -25.140625 6.3828125 C-26.130625 6.0528125 -27.120625 5.7228125 -28.140625 5.3828125 C-27.810625 4.3928125 -27.480625 3.4028125 -27.140625 2.3828125 C-29.780625 3.0428125 -32.420625 3.7028125 -35.140625 4.3828125 C-27.15689496 -4.5401799 -10.5436424 -5.84395684 0 0 Z " fill="#7859DA" transform="translate(320.140625,229.6171875)"/>
<path d="M0 0 C1.16144531 0.00902344 2.32289063 0.01804687 3.51953125 0.02734375 C4.39996094 0.03894531 5.28039062 0.05054688 6.1875 0.0625 C6.1875 0.7225 6.1875 1.3825 6.1875 2.0625 C3.43671116 2.97942961 1.82801087 3.17136083 -1 3.125 C-2.8871875 3.0940625 -2.8871875 3.0940625 -4.8125 3.0625 C-4.8125 3.7225 -4.8125 4.3825 -4.8125 5.0625 C-1.33006907 6.80371546 2.69056686 6.4687356 6.53515625 6.68359375 C7.84806641 6.87115234 7.84806641 6.87115234 9.1875 7.0625 C9.6825 8.0525 9.6825 8.0525 10.1875 9.0625 C9.31798706 9.12981323 9.31798706 9.12981323 8.4309082 9.19848633 C5.78601887 9.4107648 3.14320219 9.64269088 0.5 9.875 C-0.41201172 9.94525391 -1.32402344 10.01550781 -2.26367188 10.08789062 C-9.01558469 10.6963396 -9.01558469 10.6963396 -14.8125 14.0625 C-16.471096 16.87146063 -16.471096 16.87146063 -16.8125 20.0625 C-15.27329825 23.62696721 -14.06978341 24.89097773 -10.8125 27.0625 C-9.15700469 27.44749891 -7.4902567 27.79043135 -5.8125 28.0625 C-4.8125 31.0625 -4.8125 31.0625 -4.8125 35.0625 C-0.3575 34.5675 -0.3575 34.5675 4.1875 34.0625 C4.1875 33.0725 4.1875 32.0825 4.1875 31.0625 C5.5075 31.7225 6.8275 32.3825 8.1875 33.0625 C0.69042808 37.53190826 -4.98119943 38.90246518 -13.8125 38.0625 C-19.84815536 36.513601 -24.50287314 34.57854477 -27.8125 29.0625 C-30.62495182 24.27927902 -30.44808937 19.46893304 -29.8125 14.0625 C-26.82130347 7.96932189 -22.65587671 4.56309678 -16.3125 2.375 C-10.78070558 0.63170563 -5.81624399 -0.05874994 0 0 Z " fill="#7B57E3" transform="translate(170.8125,351.9375)"/>
<path d="M0 0 C-0.99 1.485 -0.99 1.485 -2 3 C-1.34 3.33 -0.68 3.66 0 4 C0 4.66 0 5.32 0 6 C-1.32 6 -2.64 6 -4 6 C-3.79375 6.825 -3.5875 7.65 -3.375 8.5 C-2.9059085 12.87818732 -3.76682508 15.79269734 -5 20 C-5.66 20 -6.32 20 -7 20 C-6.67 20.99 -6.34 21.98 -6 23 C3.57 23 13.14 23 23 23 C23 24.98 23 26.96 23 29 C7.655 29.495 7.655 29.495 -8 30 C-8 31.98 -8 33.96 -8 36 C-6.68 36.33 -5.36 36.66 -4 37 C-4.99 39.475 -4.99 39.475 -6 42 C-6.99 42 -7.98 42 -9 42 C-9.33 43.32 -9.66 44.64 -10 46 C-10.99 45.67 -11.98 45.34 -13 45 C-13 43.35 -13 41.7 -13 40 C-13.99 39.67 -14.98 39.34 -16 39 C-18.81455436 34.40783236 -18.18140244 29.19012541 -18 24 C-17.01 24 -16.02 24 -15 24 C-15.37705078 23.18208984 -15.37705078 23.18208984 -15.76171875 22.34765625 C-17.95846627 16.92530478 -18.32948208 13.46431744 -16.07421875 8.01171875 C-14.08138853 4.27969125 -11.98632486 1.76015124 -7.96875 0.22265625 C-2.55550699 -1.2777535 -2.55550699 -1.2777535 0 0 Z " fill="#7E5BED" transform="translate(295,232)"/>
<path d="M0 0 C3.96 0 7.92 0 12 0 C12 2.64 12 5.28 12 8 C16.62 8 21.24 8 26 8 C26 11.3 26 14.6 26 18 C21.38 18 16.76 18 12 18 C12 18.66 12 19.32 12 20 C11.34 20 10.68 20 10 20 C10.020625 20.94875 10.04125 21.8975 10.0625 22.875 C10 26 10 26 9 28 C7.02 28 5.04 28 3 28 C2.34 24.37 1.68 20.74 1 17 C-0.7015625 17.0309375 -0.7015625 17.0309375 -2.4375 17.0625 C-6 17 -6 17 -7 16 C-7.125 12.5 -7.125 12.5 -7 9 C-6 8 -6 8 -2.9375 7.9375 C-1.4834375 7.9684375 -1.4834375 7.9684375 0 8 C0 5.36 0 2.72 0 0 Z " fill="#7D5BEB" transform="translate(316,322)"/>
<path d="M0 0 C7 0 7 0 8.90551758 1.2484436 C10.20174716 3.32286634 10.42139236 4.58730573 10.51171875 7.02490234 C10.54765137 7.82938812 10.58358398 8.6338739 10.62060547 9.46273804 C10.65371826 10.76122177 10.65371826 10.76122177 10.6875 12.0859375 C10.73221436 13.42683945 10.73221436 13.42683945 10.77783203 14.79483032 C10.83556579 16.68592005 10.88549712 18.57726168 10.92822266 20.46875 C10.99959324 23.35853048 11.11369683 26.24455525 11.23046875 29.1328125 C11.28126753 30.9712836 11.32952821 32.80982694 11.375 34.6484375 C11.41326904 35.51004486 11.45153809 36.37165222 11.4909668 37.2593689 C11.55117792 41.81532481 11.47222759 43.42278219 8.4765625 47.08447266 C7.25066406 48.03265869 7.25066406 48.03265869 6 49 C5.01 48.67 4.02 48.34 3 48 C3 46.68 3 45.36 3 44 C2.01 44 1.02 44 0 44 C0 29.48 0 14.96 0 0 Z " fill="#7C5AE9" transform="translate(132,228)"/>
<path d="M0 0 C2.64 0 5.28 0 8 0 C10.54086249 2.54086249 10.24715629 4.17235035 10.27789307 7.63841248 C10.2738446 8.4061348 10.26979614 9.17385712 10.265625 9.96484375 C10.26753845 10.75395645 10.2694519 11.54306915 10.27142334 12.35609436 C10.27278533 14.0263806 10.2690879 15.69667742 10.26074219 17.36694336 C10.2500568 19.9239077 10.26062939 22.48016718 10.2734375 25.03710938 C10.27211563 26.65885572 10.26955266 28.28060162 10.265625 29.90234375 C10.26967346 30.66804184 10.27372192 31.43373993 10.27789307 32.22264099 C10.244398 36.01649251 10.15604644 37.76593033 8 41 C7.67 41 7.34 41 7 41 C6.34 43.97 5.68 46.94 5 50 C3 46 3 46 2.5 43.3125 C2.2525 42.1678125 2.2525 42.1678125 2 41 C1.34 40.67 0.68 40.34 0 40 C0 26.8 0 13.6 0 0 Z " fill="#7E5BEB" transform="translate(208,330)"/>
<path d="M0 0 C0.33 0 0.66 0 1 0 C1 21.12 1 42.24 1 64 C4.3 64 7.6 64 11 64 C11 60.37 11 56.74 11 53 C12.65 52.34 14.3 51.68 16 51 C16.33 50.34 16.66 49.68 17 49 C17.556875 49.61875 18.11375 50.2375 18.6875 50.875 C22.79973227 54.65380803 26.58109227 55.26372691 32.0625 55.1875 C33.08472656 55.18105469 34.10695312 55.17460937 35.16015625 55.16796875 C37.60072799 55.02361581 39.66839596 54.69892207 42 54 C41.67 54.99 41.34 55.98 41 57 C40.28972656 57.04898438 39.57945312 57.09796875 38.84765625 57.1484375 C37.92855469 57.22320312 37.00945312 57.29796875 36.0625 57.375 C35.14597656 57.44460938 34.22945312 57.51421875 33.28515625 57.5859375 C32.15400391 57.79089844 32.15400391 57.79089844 31 58 C30.67 58.66 30.34 59.32 30 60 C28.66666667 60.33333333 27.33333333 60.66666667 26 61 C25.67 61.66 25.34 62.32 25 63 C27.75078884 63.91692961 29.35948913 64.10886083 32.1875 64.0625 C33.445625 64.041875 34.70375 64.02125 36 64 C35.67 63.01 35.34 62.02 35 61 C36 60 36 60 38.1875 59.8125 C41.39035942 60.02602396 44.00198135 60.88445818 47 62 C46 64 46 64 43.953125 65.09375 C36.98811743 67.23115973 27.77807251 67.53741847 20.95703125 64.76171875 C17.47288325 62.47116142 15.3231023 60.48465345 13 57 C12.67 59.64 12.34 62.28 12 65 C8.04 65 4.08 65 0 65 C0 43.55 0 22.1 0 0 Z " fill="#7A5BE1" transform="translate(207,222)"/>
<path d="M0 0 C17.82 0 35.64 0 54 0 C54 3.63 54 7.26 54 11 C53.67 11 53.34 11 53 11 C52.505 6.545 52.505 6.545 52 2 C48.10287705 2.02284783 44.20867064 2.1002222 40.3125 2.1875 C38.65831055 2.19620117 38.65831055 2.19620117 36.97070312 2.20507812 C30.4051953 2.27313052 30.4051953 2.27313052 24.90625 5.53125 C24.2771875 6.3459375 23.648125 7.160625 23 8 C20.1875 8.3125 20.1875 8.3125 18 8 C18 8.66 18 9.32 18 10 C12.72 10 7.44 10 2 10 C1.67 8.02 1.34 6.04 1 4 C0.67 2.68 0.34 1.36 0 0 Z " fill="#6C4FCA" transform="translate(71,211)"/>
<path d="M0 0 C0.66 0 1.32 0 2 0 C2.33 20.46 2.66 40.92 3 62 C4.98 62.33 6.96 62.66 9 63 C9.33 42.21 9.66 21.42 10 0 C10.66 0 11.32 0 12 0 C12 21.45 12 42.9 12 65 C8.04 65 4.08 65 0 65 C0 43.55 0 22.1 0 0 Z " fill="#6047AE" transform="translate(92,222)"/>
<path d="M0 0 C3.96 0 7.92 0 12 0 C12.01981934 1.25135742 12.03963867 2.50271484 12.06005859 3.79199219 C12.13615293 8.436402 12.22486463 13.08050008 12.31738281 17.72460938 C12.35565669 19.73431238 12.39051236 21.74408351 12.421875 23.75390625 C12.46755991 26.6434768 12.52554887 29.53257896 12.5859375 32.421875 C12.59748871 33.31992859 12.60903992 34.21798218 12.62094116 35.14324951 C12.64081085 35.98381897 12.66068054 36.82438843 12.68115234 37.69042969 C12.69447601 38.42767273 12.70779968 39.16491577 12.7215271 39.92449951 C13.04356236 42.32467683 13.73251435 43.94330668 15 46 C15.66 46.33 16.32 46.66 17 47 C17 47.66 17 48.32 17 49 C21.29 49 25.58 49 30 49 C28 51 28 51 25.93701172 51.22705078 C24.69588623 51.21134033 24.69588623 51.21134033 23.4296875 51.1953125 C22.53378906 51.18886719 21.63789063 51.18242187 20.71484375 51.17578125 C19.77769531 51.15902344 18.84054688 51.14226562 17.875 51.125 C16.93011719 51.11597656 15.98523438 51.10695313 15.01171875 51.09765625 C12.67422708 51.07404522 10.33723877 51.04111516 8 51 C8.33 52.32 8.66 53.64 9 55 C9.99 55 10.98 55 12 55 C12 55.66 12 56.32 12 57 C14.70894767 57.08144943 17.41541263 57.14070614 20.125 57.1875 C20.88554687 57.21263672 21.64609375 57.23777344 22.4296875 57.26367188 C27.48678008 57.32906531 30.47664449 56.44959163 35 54 C35.99 54.33 36.98 54.66 38 55 C31.77256127 59.48954885 26.6618047 60.76883161 19 60 C14.24180984 58.91281708 10.07761811 57.71841207 6 55 C6 54.34 6 53.68 6 53 C5.34 53 4.68 53 4 53 C1 47.25 1 47.25 1 45 C1.66 45 2.32 45 3 45 C3 46.32 3 47.64 3 49 C6.84980225 49.41489479 6.84980225 49.41489479 8.74536133 47.61230469 C10.70263053 43.53704093 10.25498053 39.65436254 10.07421875 35.203125 C10.04777786 34.25435486 10.02133698 33.30558472 9.99409485 32.32806396 C9.90641029 29.30139692 9.79723295 26.27594008 9.6875 23.25 C9.62423311 21.19665778 9.56236733 19.14327188 9.50195312 17.08984375 C9.35088167 12.0592448 9.18053278 7.02962438 9 2 C6.03 1.67 3.06 1.34 0 1 C0 0.67 0 0.34 0 0 Z " fill="#684DBB" transform="translate(132,227)"/>
<path d="M0 0 C-0.99 1.65 -1.98 3.3 -3 5 C1.29 5.33 5.58 5.66 10 6 C10 6.33 10 6.66 10 7 C9.03900391 7.18175781 9.03900391 7.18175781 8.05859375 7.3671875 C6.26459956 7.71475716 4.47297895 8.07474478 2.68359375 8.4453125 C1.07655625 8.77748037 -0.53470744 9.09122051 -2.15234375 9.3671875 C-4.24011022 9.7389381 -4.24011022 9.7389381 -7 11 C-8.53146378 14.00594421 -8.53146378 14.00594421 -9 17 C-12.63 17 -16.26 17 -20 17 C-21.36009786 12.91970643 -20.27650411 11.08390566 -18.5078125 7.29296875 C-15.56230474 2.81366031 -10.90076091 -0.03131524 -5.859375 -1.71484375 C-3.36695318 -2.09708491 -2.11120202 -1.28180123 0 0 Z " fill="#7D59E8" transform="translate(164,333)"/>
<path d="M0 0 C1.32 0.66 2.64 1.32 4 2 C3.95875 2.9075 3.9175 3.815 3.875 4.75 C3.99812548 7.95126252 4.49925347 9.27989692 6 12 C6 12.99 6 13.98 6 15 C7.65 15.33 9.3 15.66 11 16 C11.33 16.99 11.66 17.98 12 19 C12.66 19.66 13.32 20.32 14 21 C13.67 21.66 13.34 22.32 13 23 C7.71502591 23.44041451 7.71502591 23.44041451 5 23 C2.5 20.5 2.5 20.5 1 18 C0.01 18.33 -0.98 18.66 -2 19 C-4 17 -4 17 -4.125 13.875 C-4.08375 12.92625 -4.0425 11.9775 -4 11 C-4.66 11 -5.32 11 -6 11 C-6 8.69 -6 6.38 -6 4 C-5.34 4 -4.68 4 -4 4 C-4 3.34 -4 2.68 -4 2 C-3.01 2 -2.02 2 -1 2 C-0.67 1.34 -0.34 0.68 0 0 Z " fill="#7E5AEE" transform="translate(148,364)"/>
<path d="M0 0 C0.33 0 0.66 0 1 0 C1 13.2 1 26.4 1 40 C1.99 40.33 2.98 40.66 4 41 C5 44 5 44 5 46 C5.33 46.33 5.66 46.66 6 47 C6.28875 45.88625 6.5775 44.7725 6.875 43.625 C8 40 8 40 10 38 C10.18750246 35.298457 10.25564881 32.70130708 10.23046875 30 C10.23001053 29.20851563 10.22955231 28.41703125 10.2290802 27.6015625 C10.22605731 25.9270681 10.2181699 24.25257652 10.20581055 22.578125 C10.18757326 20.01031569 10.18530072 17.44286726 10.18554688 14.875 C10.18063094 13.24999687 10.17480229 11.6249962 10.16796875 10 C10.16685593 9.22914063 10.1657431 8.45828125 10.16459656 7.6640625 C10.21103433 3.70261433 10.21103433 3.70261433 9 0 C9.99 0 10.98 0 12 0 C12.01981934 1.11971191 12.03963867 2.23942383 12.06005859 3.39306641 C12.13637511 7.56418595 12.2250517 11.73496847 12.31738281 15.90576172 C12.35556522 17.70777715 12.39043651 19.50986601 12.421875 21.31201172 C12.46775963 23.90879481 12.52571435 26.5050771 12.5859375 29.1015625 C12.59748871 29.9017984 12.60903992 30.7020343 12.62094116 31.52651978 C12.74006234 36.0848219 13.43522266 39.67274356 15 44 C15 45.32 15 46.64 15 48 C14.01 47.67 13.02 47.34 12 47 C11.34 49.64 10.68 52.28 10 55 C11.98 55 13.96 55 16 55 C15.67 55.99 15.34 56.98 15 58 C9.25331989 56.52991904 6.09073388 54.30854686 2.90185547 49.26220703 C-1.56406916 40.0711276 -0.43050492 29.82661078 -0.25 19.875 C-0.22990603 17.94533102 -0.21166039 16.01564185 -0.1953125 14.0859375 C-0.15154235 9.39012112 -0.08267468 4.69528597 0 0 Z " fill="#6049AD" transform="translate(207,330)"/>
<path d="M0 0 C3.96 0 7.92 0 12 0 C12 16.17 12 32.34 12 49 C14.31 49 16.62 49 19 49 C20 50 20 50 20.09765625 52.28515625 C20.06510417 54.85677083 20.03255208 57.42838542 20 60 C15.38 60 10.76 60 6 60 C6 59.67 6 59.34 6 59 C11.94 58.505 11.94 58.505 18 58 C18 55.69 18 53.38 18 51 C16.2984375 51.0309375 16.2984375 51.0309375 14.5625 51.0625 C11 51 11 51 10 50 C9.87767356 48.52749355 9.8222544 47.04934289 9.79467773 45.57202148 C9.77473251 44.63112167 9.75478729 43.69022186 9.73423767 42.72080994 C9.71752518 41.69790359 9.70081268 40.67499725 9.68359375 39.62109375 C9.66281265 38.57929459 9.64203156 37.53749542 9.62062073 36.46412659 C9.55500943 33.12198753 9.49618669 29.77976715 9.4375 26.4375 C9.39432578 24.17772582 9.35071186 21.91795999 9.30664062 19.65820312 C9.19931633 14.10555579 9.09757188 8.55282679 9 3 C6.36 2.67 3.72 2.34 1 2 C1 12.56 1 23.12 1 34 C0.67 34 0.34 34 0 34 C0 22.78 0 11.56 0 0 Z " fill="#5E489E" transform="translate(173,227)"/>
<path d="M0 0 C4.29 0 8.58 0 13 0 C13 16.17 13 32.34 13 49 C12.34 48.67 11.68 48.34 11 48 C11 32.82 11 17.64 11 2 C8.03 1.67 5.06 1.34 2 1 C2 12.88 2 24.76 2 37 C1.34 37 0.68 37 0 37 C0 24.79 0 12.58 0 0 Z " fill="#604AA9" transform="translate(248,330)"/>
<path d="M0 0 C8.70716598 -0.5709617 16.80840423 1.05527685 23.6875 6.75 C24.450625 7.4925 25.21375 8.235 26 9 C25.01 9.33 24.02 9.66 23 10 C22.01 10.495 22.01 10.495 21 11 C20.01 11.495 20.01 11.495 19 12 C19.99 13.485 19.99 13.485 21 15 C21.125 18.1875 21.125 18.1875 21 21 C19.5 19.625 19.5 19.625 18 18 C18 17.34 18 16.68 18 16 C14.99049877 14.38274466 12.02896392 13.32417377 8.75 12.375 C7.85796875 12.11460937 6.9659375 11.85421875 6.046875 11.5859375 C5.37140625 11.39257812 4.6959375 11.19921875 4 11 C4.66 10.34 5.32 9.68 6 9 C6.99 9 7.98 9 9 9 C9 8.34 9 7.68 9 7 C10.65 6.34 12.3 5.68 14 5 C14 4.67 14 4.34 14 4 C11.03 3.505 11.03 3.505 8 3 C7.67 3.66 7.34 4.32 7 5 C6.67 4.01 6.34 3.02 6 2 C4.02 2 2.04 2 0 2 C0 1.34 0 0.68 0 0 Z " fill="#7657D4" transform="translate(235,227)"/>
<path d="M0 0 C0.33 0 0.66 0 1 0 C1.02312851 7.54498233 1.04091769 15.08996101 1.05181217 22.63497066 C1.05703989 26.13808885 1.0641355 29.64118285 1.07543945 33.14428711 C1.08834206 37.16780841 1.09322912 41.19130414 1.09765625 45.21484375 C1.10281754 46.47836166 1.10797882 47.74187958 1.11329651 49.04368591 C1.11337204 50.204814 1.11344757 51.36594208 1.11352539 52.56225586 C1.115746 53.59039902 1.11796661 54.61854218 1.12025452 55.67784119 C1 58 1 58 0 59 C-1.99958364 59.04080783 -4.00045254 59.04254356 -6 59 C-6 60.98 -6 62.96 -6 65 C1.92 65 9.84 65 18 65 C18 63.02 18 61.04 18 59 C16.02 59 14.04 59 12 59 C12 58.34 12 57.68 12 57 C14.64 57 17.28 57 20 57 C20 60.3 20 63.6 20 67 C11.09 67 2.18 67 -7 67 C-7 63.7 -7 60.4 -7 57 C-4.69 57 -2.38 57 0 57 C0 38.19 0 19.38 0 0 Z " fill="#6750AB" transform="translate(281,322)"/>
<path d="M0 0 C1.32 0.33 2.64 0.66 4 1 C4 2.65 4 4.3 4 6 C4.66 6.33 5.32 6.66 6 7 C4.68 7.33 3.36 7.66 2 8 C2 7.34 2 6.68 2 6 C1.34 6 0.68 6 0 6 C0.33 8.31 0.66 10.62 1 13 C-0.5778125 12.505 -0.5778125 12.505 -2.1875 12 C-5.38873357 11.16033218 -7.7411008 10.80249096 -11 11 C-10.01 12.485 -10.01 12.485 -9 14 C-11.40545638 15.20272819 -12.94996953 15.10071472 -15.625 15.0625 C-16.85089844 15.04896484 -16.85089844 15.04896484 -18.1015625 15.03515625 C-19.04128906 15.01775391 -19.04128906 15.01775391 -20 15 C-20.66 13.68 -21.32 12.36 -22 11 C-16.75117306 7.82307843 -11.98511371 7.34302035 -6 7 C-5.67 6.01 -5.34 5.02 -5 4 C-3.35 3.67 -1.7 3.34 0 3 C0 2.01 0 1.02 0 0 Z " fill="#7E5AEF" transform="translate(254,272)"/>
<path d="M0 0 C2 1 2 1 2.875 3.1875 C3.05415567 7.21850252 1.58237267 8.9988642 -1 12 C-2.32 12 -3.64 12 -5 12 C-5 12.66 -5 13.32 -5 14 C-0.05 14 4.9 14 10 14 C10.33 12.68 10.66 11.36 11 10 C11.6469365 8.3255761 12.30959426 6.65697379 13 5 C14.31826804 8.95480412 13.29536133 11.11391601 12 15 C9.37550198 17.62449802 1.98611458 16.22985959 -1.78295898 16.24023438 C-3.92536161 16.24994498 -6.06680697 16.28095753 -8.20898438 16.3125 C-9.56509845 16.31902936 -10.92121941 16.3242801 -12.27734375 16.328125 C-14.13734009 16.34214355 -14.13734009 16.34214355 -16.03491211 16.35644531 C-17.01339111 16.23881836 -17.99187012 16.12119141 -19 16 C-21.29633824 12.55549263 -21.54016485 10.06187717 -22 6 C-21.01 6.495 -21.01 6.495 -20 7 C-19.59270772 9.32156597 -19.25561323 11.6568787 -19 14 C-15.7 14 -12.4 14 -9 14 C-8.67 10.37 -8.34 6.74 -8 3 C-6 7 -6 7 -5 10 C-4.34 10 -3.68 10 -3 10 C-2.01 6.7 -1.02 3.4 0 0 Z " fill="#654CAF" transform="translate(101,373)"/>
<path d="M0 0 C1.32 0.66 2.64 1.32 4 2 C4 2.66 4 3.32 4 4 C4.97582031 3.97679687 5.95164063 3.95359375 6.95703125 3.9296875 C8.22933594 3.91164063 9.50164062 3.89359375 10.8125 3.875 C12.07707031 3.85179687 13.34164062 3.82859375 14.64453125 3.8046875 C18 4 18 4 21 6 C20.195625 6.28875 19.39125 6.5775 18.5625 6.875 C15.8673532 7.73262568 15.8673532 7.73262568 15 10 C15.66 10.33 16.32 10.66 17 11 C14.43106162 12.28446919 12.23423663 12.32977144 9.375 12.5625 C8.37210938 12.64628906 7.36921875 12.73007812 6.3359375 12.81640625 C5.56507813 12.87699219 4.79421875 12.93757813 4 13 C4 12.01 4 11.02 4 10 C2.35 9.67 0.7 9.34 -1 9 C-0.67 6.03 -0.34 3.06 0 0 Z " fill="#7E5AED" transform="translate(218,376)"/>
<path d="M0 0 C0.33 0 0.66 0 1 0 C1 21.12 1 42.24 1 64 C4.3 64 7.6 64 11 64 C11 60.37 11 56.74 11 53 C12.65 52.34 14.3 51.68 16 51 C16.33 50.34 16.66 49.68 17 49 C17.99 50.32 18.98 51.64 20 53 C17.525 53.495 17.525 53.495 15 54 C16.68807908 58.23084903 16.68807908 58.23084903 20 61 C19.67 61.66 19.34 62.32 19 63 C17 61 15 59 13 57 C12.67 59.64 12.34 62.28 12 65 C8.04 65 4.08 65 0 65 C0 43.55 0 22.1 0 0 Z " fill="#745FBA" transform="translate(207,222)"/>
<path d="M0 0 C2.97 0.33 5.94 0.66 9 1 C9 1.66 9 2.32 9 3 C9.66 3 10.32 3 11 3 C11 4.32 11 5.64 11 7 C8.6875 8.8125 8.6875 8.8125 6 10 C5.01 9.67 4.02 9.34 3 9 C0.77425665 8.77548542 -1.45581519 8.59217122 -3.6875 8.4375 C-4.86699219 8.35371094 -6.04648438 8.26992188 -7.26171875 8.18359375 C-8.16535156 8.12300781 -9.06898438 8.06242187 -10 8 C-10.33 6.68 -10.66 5.36 -11 4 C-5.555 3.505 -5.555 3.505 0 3 C0 2.01 0 1.02 0 0 Z " fill="#825BED" transform="translate(177,351)"/>
<path d="M0 0 C1.10408203 0.01353516 1.10408203 0.01353516 2.23046875 0.02734375 C4.0287888 0.05069856 5.82693911 0.08656164 7.625 0.125 C7.295 0.785 6.965 1.445 6.625 2.125 C4.10355264 2.4413106 1.60948848 2.5045062 -0.9296875 2.5859375 C-3.50319499 2.91393853 -3.50319499 2.91393853 -5.1328125 4.9765625 C-6.5080108 7.18888054 -6.5080108 7.18888054 -7.375 10.125 C-6.055 10.455 -4.735 10.785 -3.375 11.125 C-4.509375 11.57875 -5.64375 12.0325 -6.8125 12.5 C-10.42221692 13.69595806 -10.42221692 13.69595806 -11.375 16.125 C-12.035 16.125 -12.695 16.125 -13.375 16.125 C-13.375 14.475 -13.375 12.825 -13.375 11.125 C-12.055 11.125 -10.735 11.125 -9.375 11.125 C-9.375 10.465 -9.375 9.805 -9.375 9.125 C-10.365 8.795 -11.355 8.465 -12.375 8.125 C-12.045 7.135 -11.715 6.145 -11.375 5.125 C-14.015 5.785 -16.655 6.445 -19.375 7.125 C-13.56706379 0.63377717 -8.28850633 -0.19484735 0 0 Z " fill="#7054CC" transform="translate(304.375,226.875)"/>
<path d="M0 0 C0.33 0 0.66 0 1 0 C1.33 6.6 1.66 13.2 2 20 C2.99 18.68 3.98 17.36 5 16 C5.66 16.33 6.32 16.66 7 17 C6.67 18.65 6.34 20.3 6 22 C6.99 22 7.98 22 9 22 C9 21.34 9 20.68 9 20 C10.98 20.33 12.96 20.66 15 21 C13.1625556 22.22496293 11.29237027 23.40435984 9.375 24.5 C6.8942773 25.78026262 6.8942773 25.78026262 6 28 C5.34 28 4.68 28 4 28 C3.67 28.66 3.34 29.32 3 30 C3 29.34 3 28.68 3 28 C2.34 27.67 1.68 27.34 1 27 C1.33 26.34 1.66 25.68 2 25 C1.34 25 0.68 25 0 25 C-1.24497833 22.51004335 -1.12934372 20.81005089 -1.1328125 18.02734375 C-1.13410156 17.04572266 -1.13539063 16.06410156 -1.13671875 15.05273438 C-1.13285156 14.02470703 -1.12898437 12.99667969 -1.125 11.9375 C-1.12886719 10.90560547 -1.13273438 9.87371094 -1.13671875 8.81054688 C-1.13542969 7.83021484 -1.13414062 6.84988281 -1.1328125 5.83984375 C-1.13112061 4.48427368 -1.13112061 4.48427368 -1.12939453 3.10131836 C-1 1 -1 1 0 0 Z " fill="#6247AE" transform="translate(218,217)"/>
<path d="M0 0 C1.2065625 0.0309375 1.2065625 0.0309375 2.4375 0.0625 C2.4375 1.3825 2.4375 2.7025 2.4375 4.0625 C1.7775 4.0625 1.1175 4.0625 0.4375 4.0625 C0.7675 7.6925 1.0975 11.3225 1.4375 15.0625 C2.4275 15.0625 3.4175 15.0625 4.4375 15.0625 C6.3519901 24.31017095 7.6306322 33.65612018 8.4375 43.0625 C5.67150257 40.29650257 5.41168415 37.20525361 4.625 33.5 C3.06759891 26.49282419 1.21999685 19.63080718 -0.8996582 12.77319336 C-2.08551233 8.89114117 -3.10279558 5.10176951 -3.5625 1.0625 C-2.5625 0.0625 -2.5625 0.0625 0 0 Z " fill="#6B50BF" transform="translate(65.5625,315.9375)"/>
<path d="M0 0 C4.29 0 8.58 0 13 0 C13.75 3.25 13.75 3.25 14 7 C12.1875 9.4375 12.1875 9.4375 10 11 C9.34 11 8.68 11 8 11 C8 12.65 8 14.3 8 16 C7.01 16 6.02 16 5 16 C4.63743142 14.5437328 4.28520207 13.08488815 3.9375 11.625 C3.64166016 10.40683594 3.64166016 10.40683594 3.33984375 9.1640625 C3 7 3 7 4 5 C4.66 5 5.32 5 6 5 C6 3.68 6 2.36 6 1 C3.69 1.33 1.38 1.66 -1 2 C-0.67 1.34 -0.34 0.68 0 0 Z " fill="#7F5CEE" transform="translate(62,315)"/>
<path d="M0 0 C1.65 0.33 3.3 0.66 5 1 C5.33 1.99 5.66 2.98 6 4 C5.34 4 4.68 4 4 4 C3.67 5.32 3.34 6.64 3 8 C1.68 7.67 0.36 7.34 -1 7 C-1 7.99 -1 8.98 -1 10 C-5.455 10.495 -5.455 10.495 -10 11 C-10 10.34 -10 9.68 -10 9 C-10.66 8.67 -11.32 8.34 -12 8 C-11.8125 6.125 -11.8125 6.125 -11 4 C-8.4375 2.75 -8.4375 2.75 -6 2 C-6 2.66 -6 3.32 -6 4 C-4.02 3.67 -2.04 3.34 0 3 C0 2.01 0 1.02 0 0 Z " fill="#805EEE" transform="translate(176,376)"/>
<path d="M0 0 C1.09570312 0.00902344 2.19140625 0.01804687 3.3203125 0.02734375 C4.16335938 0.03894531 5.00640625 0.05054688 5.875 0.0625 C6.205 2.3725 6.535 4.6825 6.875 7.0625 C1.595 7.0625 -3.685 7.0625 -9.125 7.0625 C-8.465 6.4025 -7.805 5.7425 -7.125 5.0625 C-7.4435177 2.95429203 -7.4435177 2.95429203 -8.125 1.0625 C-5.36047967 -0.31976016 -3.0788637 -0.03275387 0 0 Z " fill="#7D5AEE" transform="translate(334.125,379.9375)"/>
<path d="M0 0 C0.99 0.33 1.98 0.66 3 1 C3.99 0.67 4.98 0.34 6 0 C6.309375 0.804375 6.61875 1.60875 6.9375 2.4375 C8.70576915 5.16111606 8.70576915 5.16111606 11.203125 5.5546875 C13.47431216 5.79037673 15.71758269 5.94736564 18 6 C18.33 5.34 18.66 4.68 19 4 C19.99 4 20.98 4 22 4 C22 4.66 22 5.32 22 6 C26.455 5.505 26.455 5.505 31 5 C31 4.01 31 3.02 31 2 C32.32 2.66 33.64 3.32 35 4 C27.51434383 8.46260272 21.82143859 9.86119585 13 9 C8.06423546 7.6266881 3.32881185 6.06499139 0 2 C0 1.34 0 0.68 0 0 Z " fill="#6F54C8" transform="translate(144,381)"/>
<path d="M0 0 C1.42944945 2.35438733 2.08661261 3.48032433 1.625 6.25 C1.41875 6.8275 1.2125 7.405 1 8 C1.66 8.33 2.32 8.66 3 9 C2.34 9.66 1.68 10.32 1 11 C0.34 10.34 -0.32 9.68 -1 9 C-3.43252661 8.53837573 -3.43252661 8.53837573 -6.125 8.375 C-7.03507812 8.30023438 -7.94515625 8.22546875 -8.8828125 8.1484375 C-9.58148438 8.09945312 -10.28015625 8.05046875 -11 8 C-11 7.34 -11 6.68 -11 6 C-11.66 5.67 -12.32 5.34 -13 5 C-13 4.34 -13 3.68 -13 3 C-9.90468901 1.4523445 -6.6333237 1.55590549 -3.21484375 1.28125 C-1.02929332 1.2334259 -1.02929332 1.2334259 0 0 Z M-15 5 C-14.01 5.495 -14.01 5.495 -13 6 C-13 6.99 -13 7.98 -13 9 C-12.34 9.33 -11.68 9.66 -11 10 C-12.32 10 -13.64 10 -15 10 C-15 8.35 -15 6.7 -15 5 Z " fill="#805DF1" transform="translate(312,227)"/>
<path d="M0 0 C0.66 0.33 1.32 0.66 2 1 C2.0270043 2.45823212 2.04639787 3.91660675 2.0625 5.375 C2.07410156 6.18710937 2.08570312 6.99921875 2.09765625 7.8359375 C2 10 2 10 1 12 C-2.3 12 -5.6 12 -9 12 C-9.33 9.69 -9.66 7.38 -10 5 C-9.01 5.33 -8.02 5.66 -7 6 C-6.67 5.34 -6.34 4.68 -6 4 C-5.34 4 -4.68 4 -4 4 C-3.67 3.34 -3.34 2.68 -3 2 C-2.01 2.33 -1.02 2.66 0 3 C0 2.01 0 1.02 0 0 Z " fill="#7E5BEC" transform="translate(91,375)"/>
<path d="M0 0 C2.5654594 2.5654594 2.54046087 4.47686668 3 8 C2.01 8 1.02 8 0 8 C0.65349633 15.55038422 0.65349633 15.55038422 2 23 C3.32 23.33 4.64 23.66 6 24 C5.67 25.65 5.34 27.3 5 29 C5.66 29 6.32 29 7 29 C7 29.99 7 30.98 7 32 C8.32 32 9.64 32 11 32 C11 32.66 11 33.32 11 34 C12.32 34.33 13.64 34.66 15 35 C15 35.66 15 36.32 15 37 C10.55790165 36.49233162 8.19549115 35.11355548 5 32 C0.18620419 25.1610901 -1.32194963 18.50096132 -1.1875 10.25 C-1.18685547 9.48300781 -1.18621094 8.71601563 -1.18554688 7.92578125 C-1.14091099 2.28182199 -1.14091099 2.28182199 0 0 Z " fill="#7155B7" transform="translate(277,248)"/>
<path d="M0 0 C3.96 0 7.92 0 12 0 C12 2.64 12 5.28 12 8 C16.62 8 21.24 8 26 8 C26 11.3 26 14.6 26 18 C21.38 18 16.76 18 12 18 C12 17.67 12 17.34 12 17 C16.29 17 20.58 17 25 17 C25 14.36 25 11.72 25 9 C23.95199219 9.01160156 22.90398437 9.02320313 21.82421875 9.03515625 C20.44531428 9.04453655 19.06640789 9.0536365 17.6875 9.0625 C16.99720703 9.07087891 16.30691406 9.07925781 15.59570312 9.08789062 C12.4516975 9.10307906 10.00579981 9.00193327 7 8 C7 8.66 7 9.32 7 10 C6.34 9.67 5.68 9.34 5 9 C6.32 7.02 7.64 5.04 9 3 C7.03177114 1.03177114 3.65191291 1.33751619 1 1 C1 2.98 1 4.96 1 7 C0.67 7 0.34 7 0 7 C0 4.69 0 2.38 0 0 Z " fill="#6049AD" transform="translate(316,322)"/>
<path d="M0 0 C2.33294775 -0.04241723 4.66702567 -0.04092937 7 0 C8 1 8 1 8.09765625 2.84765625 C8.04882812 5.92382812 8.04882812 5.92382812 8 9 C4.04 9 0.08 9 -4 9 C-3.01 8.67 -2.02 8.34 -1 8 C-1.020625 7.05125 -1.04125 6.1025 -1.0625 5.125 C-1 2 -1 2 0 0 Z " fill="#795ED3" transform="translate(261,379)"/>
<path d="M0 0 C1.93719378 -0.05406122 3.87481921 -0.09282025 5.8125 -0.125 C6.89144531 -0.14820313 7.97039062 -0.17140625 9.08203125 -0.1953125 C12 0 12 0 15 2 C12.36 2 9.72 2 7 2 C6.20046862 5.28696233 5.90341064 6.71023192 7 10 C4.69 10 2.38 10 0 10 C0 6.7 0 3.4 0 0 Z " fill="#6C51C1" transform="translate(274,312)"/>
<path d="M0 0 C0 0.33 0 0.66 0 1 C-0.75925781 1.04898437 -1.51851563 1.09796875 -2.30078125 1.1484375 C-3.79158203 1.26058594 -3.79158203 1.26058594 -5.3125 1.375 C-6.79169922 1.47941406 -6.79169922 1.47941406 -8.30078125 1.5859375 C-11.21528433 1.83865472 -11.21528433 1.83865472 -14 4 C-14.433125 5.2065625 -14.433125 5.2065625 -14.875 6.4375 C-16.31751633 9.72323165 -17.80349227 10.47785346 -21 12 C-23.3125 12.6875 -23.3125 12.6875 -25 13 C-25.33 12.34 -25.66 11.68 -26 11 C-18.38905211 1.26076273 -12.20155502 -0.54095564 0 0 Z " fill="#43B487" transform="translate(444,255)"/>
<path d="M0 0 C0.99 0.33 1.98 0.66 3 1 C3 3.31 3 5.62 3 8 C5.31 8.33 7.62 8.66 10 9 C10 23.85 10 38.7 10 54 C9.67 54 9.34 54 9 54 C9 39.48 9 24.96 9 10 C6.03 10 3.06 10 0 10 C0 6.7 0 3.4 0 0 Z " fill="#4E3891" transform="translate(307,330)"/>
<path d="M0 0 C-0.25 2.375 -0.25 2.375 -1 5 C-4.55680483 7.63203558 -8.524802 7.22883284 -12.75 7.125 C-13.44738281 7.11597656 -14.14476562 7.10695313 -14.86328125 7.09765625 C-16.57566958 7.07419888 -18.28788004 7.03833104 -20 7 C-20 6.67 -20 6.34 -20 6 C-15.545 5.505 -15.545 5.505 -11 5 C-10.67 3.68 -10.34 2.36 -10 1 C-6.36806148 -1.11863081 -3.99237419 -1.14067834 0 0 Z " fill="#7355D0" transform="translate(244,382)"/>
<path d="M0 0 C0.33 0 0.66 0 1 0 C1.33 1.98 1.66 3.96 2 6 C2.66 5.34 3.32 4.68 4 4 C4.33 4.99 4.66 5.98 5 7 C4.01 7.33 3.02 7.66 2 8 C1.67 11.3 1.34 14.6 1 18 C1.99 17.67 2.98 17.34 4 17 C2.79618552 19.49361571 1.54571278 21.68143083 0 24 C-0.99 24 -1.98 24 -3 24 C-3 24.99 -3 25.98 -3 27 C-3.66 27 -4.32 27 -5 27 C-5.33 27.66 -5.66 28.32 -6 29 C-6.66 28.34 -7.32 27.68 -8 27 C-7.21625 26.2575 -6.4325 25.515 -5.625 24.75 C-1.41773368 20.34238766 -0.78614778 17.59921744 -0.87304688 11.65429688 C-0.90495117 10.49510742 -0.90495117 10.49510742 -0.9375 9.3125 C-0.99906849 6.53735733 -1.02065604 3.77676133 -1 1 C-0.67 0.67 -0.34 0.34 0 0 Z " fill="#644BB0" transform="translate(257,248)"/>
<path d="M0 0 C3.20285942 0.21352396 5.81448135 1.07195818 8.8125 2.1875 C7.8125 4.1875 7.8125 4.1875 5.79296875 5.296875 C1.84553409 6.47644918 -1.7792024 6.47918751 -5.875 6.4375 C-7.03225586 6.44910156 -7.03225586 6.44910156 -8.21289062 6.4609375 C-13.93404908 6.44095092 -13.93404908 6.44095092 -16.1875 4.1875 C-11.5675 4.1875 -6.9475 4.1875 -2.1875 4.1875 C-2.5175 3.1975 -2.8475 2.2075 -3.1875 1.1875 C-2.1875 0.1875 -2.1875 0.1875 0 0 Z " fill="#704CC1" transform="translate(245.1875,281.8125)"/>
<path d="M0 0 C1.32 1.32 2.64 2.64 4 4 C2.35 4.33 0.7 4.66 -1 5 C0.68807908 9.23084903 0.68807908 9.23084903 4 12 C3.67 12.66 3.34 13.32 3 14 C1 12 -1 10 -3 8 C-3.33 10.64 -3.66 13.28 -4 16 C-7.96 16 -11.92 16 -16 16 C-16 15.67 -16 15.34 -16 15 C-12.37 15 -8.74 15 -5 15 C-5 11.37 -5 7.74 -5 4 C-3.35 3.34 -1.7 2.68 0 2 C0 1.34 0 0.68 0 0 Z " fill="#573D95" transform="translate(223,271)"/>
<path d="M0 0 C0.99 0 1.98 0 3 0 C3 0.66 3 1.32 3 2 C3.53109375 1.83628906 4.0621875 1.67257812 4.609375 1.50390625 C7.53876764 0.88643623 10.25822936 0.90498075 13.25 0.9375 C14.32765625 0.94652344 15.4053125 0.95554687 16.515625 0.96484375 C17.33546875 0.97644531 18.1553125 0.98804688 19 1 C19 1.33 19 1.66 19 2 C18.03900391 2.18175781 18.03900391 2.18175781 17.05859375 2.3671875 C14.36721576 2.88861692 11.68310457 3.43760254 9 4 C7.93458984 4.2165625 7.93458984 4.2165625 6.84765625 4.4375 C3.85783737 5.14544866 2.32160424 5.52458504 0.5625 8.125 C0.376875 8.74375 0.19125 9.3625 0 10 C-0.66 9.67 -1.32 9.34 -2 9 C-2 8.34 -2 7.68 -2 7 C-1.01 7 -0.02 7 1 7 C0.34 5.02 -0.32 3.04 -1 1 C-0.67 0.67 -0.34 0.34 0 0 Z " fill="#7C5BE2" transform="translate(155,338)"/>
<path d="M0 0 C0.99 0.33 1.98 0.66 3 1 C-3.22877616 5.49051304 -8.33756599 6.7662434 -16 6 C-19.42045847 5.23879971 -22.77096522 4.37218242 -26 3 C-26.33 2.34 -26.66 1.68 -27 1 C-25.68 1 -24.36 1 -23 1 C-23 1.66 -23 2.32 -23 3 C-20.29105233 3.08144943 -17.58458737 3.14070614 -14.875 3.1875 C-14.11445313 3.21263672 -13.35390625 3.23777344 -12.5703125 3.26367188 C-7.51321992 3.32906531 -4.52335551 2.44959163 0 0 Z " fill="#6245A3" transform="translate(167,281)"/>
<path d="M0 0 C4.29 0 8.58 0 13 0 C13 0.66 13 1.32 13 2 C9.37 2 5.74 2 2 2 C2.33 3.98 2.66 5.96 3 8 C4.65 8.33 6.3 8.66 8 9 C8 9.66 8 10.32 8 11 C5.36 11 2.72 11 0 11 C0 7.37 0 3.74 0 0 Z " fill="#6551A9" transform="translate(199,211)"/>
<path d="M0 0 C3.3 0.33 6.6 0.66 10 1 C11.80230168 4.82989106 12.19622241 7.78121808 12 12 C7.91556885 13.53166168 4.20544343 12.63081652 0 12 C0 11.67 0 11.34 0 11 C3.3 10.67 6.6 10.34 10 10 C9.45160938 7.01779872 9.45160938 7.01779872 8 4 C5.0497509 2.68314723 5.0497509 2.68314723 2 2 C1.34 1.34 0.68 0.68 0 0 Z " fill="#6646AF" transform="translate(178,340)"/>
<path d="M0 0 C2.64 0.99 5.28 1.98 8 3 C6.25 7.875 6.25 7.875 4 9 C1.6670134 9.04022391 -0.66706666 9.04320247 -3 9 C-1.68 7.35 -0.36 5.7 1 4 C0.34 3.34 -0.32 2.68 -1 2 C-0.67 1.34 -0.34 0.68 0 0 Z " fill="#815FEE" transform="translate(162,330)"/>
<path d="M0 0 C0 0.33 0 0.66 0 1 C-1.08539063 1.26554687 -2.17078125 1.53109375 -3.2890625 1.8046875 C-4.73440647 2.16133082 -6.17971722 2.5181088 -7.625 2.875 C-8.33785156 3.04902344 -9.05070312 3.22304688 -9.78515625 3.40234375 C-17.52741998 4.9667126 -17.52741998 4.9667126 -24 9 C-24.66 8.34 -25.32 7.68 -26 7 C-17.85078872 1.03605208 -9.95839258 -0.36882935 0 0 Z " fill="#5A44A2" transform="translate(172,352)"/>
<path d="M0 0 C1.07546082 3.22638245 1.0353068 5.43178654 0.9375 8.8125 C0.88273734 13.34137171 1.32272283 16.75089785 3 21 C2.67 21.66 2.34 22.32 2 23 C1.01 23 0.02 23 -1 23 C-1.66 20.69 -2.32 18.38 -3 16 C-2.67 15.67 -2.34 15.34 -2 15 C-1.79016721 12.85795689 -1.63176615 10.71075887 -1.5 8.5625 C-1.11013767 2.22027534 -1.11013767 2.22027534 0 0 Z " fill="#6D51C4" transform="translate(219,249)"/>
<path d="M0 0 C0.66 0.99 1.32 1.98 2 3 C0.68 3 -0.64 3 -2 3 C-2.0825 3.53625 -2.165 4.0725 -2.25 4.625 C-3.26180314 7.82904327 -5.1166143 10.23377725 -7 13 C-7.33 13.99 -7.66 14.98 -8 16 C-8.66 15.67 -9.32 15.34 -10 15 C-8.40898194 9.06278626 -6.91005343 5.02876179 -2 1 C-1.34 0.67 -0.68 0.34 0 0 Z " fill="#7058B7" transform="translate(153,334)"/>
<path d="M0 0 C0.66 0.33 1.32 0.66 2 1 C1.67 2.65 1.34 4.3 1 6 C1.99 6 2.98 6 4 6 C4 5.34 4 4.68 4 4 C6.97 4.495 6.97 4.495 10 5 C6.74147635 7.1723491 3.40755272 9.07119658 0 11 C0 9.35 0 7.7 0 6 C-0.99 6.33 -1.98 6.66 -3 7 C-2.38722388 4.03824877 -1.74627478 2.61941217 0 0 Z " fill="#6950BC" transform="translate(223,233)"/>
<path d="M0 0 C0.66 0.33 1.32 0.66 2 1 C1.67 12.22 1.34 23.44 1 35 C-0.485 35.495 -0.485 35.495 -2 36 C-2 34.68 -2 33.36 -2 32 C-1.34 32 -0.68 32 0 32 C0 21.44 0 10.88 0 0 Z " fill="#785AD7" transform="translate(174,229)"/>
<path d="M0 0 C2.33294775 -0.04241723 4.66702567 -0.04092937 7 0 C8 1 8 1 8.09765625 3.28515625 C8.04882812 7.14257812 8.04882812 7.14257812 8 11 C3.38 11 -1.24 11 -6 11 C-6 10.67 -6 10.34 -6 10 C-0.06 9.505 -0.06 9.505 6 9 C5.67 6.69 5.34 4.38 5 2 C3.35 1.67 1.7 1.34 0 1 C0 0.67 0 0.34 0 0 Z " fill="#5C4893" transform="translate(185,276)"/>
<path d="M0 0 C2.5654594 2.5654594 2.54046087 4.47686668 3 8 C2.01 8 1.02 8 0 8 C0.5381371 13.69051363 1.1400133 19.34865884 2 25 C-0.56213847 19.87572306 -1.15337226 16.25956924 -1.125 10.5 C-1.12886719 9.71496094 -1.13273437 8.92992187 -1.13671875 8.12109375 C-1.12665394 2.25330787 -1.12665394 2.25330787 0 0 Z " fill="#654EB0" transform="translate(277,248)"/>
<path d="M0 0 C0 0.66 0 1.32 0 2 C-5.61 2 -11.22 2 -17 2 C-16.67 3.65 -16.34 5.3 -16 7 C-16.99 7 -17.98 7 -19 7 C-19 5.02 -19 3.04 -19 1 C-12.62694402 0.25492456 -6.41688675 -0.10349817 0 0 Z " fill="#776FB8" transform="translate(306,261)"/>
<path d="M0 0 C5.28 0 10.56 0 16 0 C13.25 12.75 13.25 12.75 11 15 C11.66 10.38 12.32 5.76 13 1 C8.71 1 4.42 1 0 1 C0 0.67 0 0.34 0 0 Z " fill="#6048A1" transform="translate(118,314)"/>
<path d="M0 0 C1.65 0.33 3.3 0.66 5 1 C5 1.66 5 2.32 5 3 C1.2384416 6.64757179 -2.03533083 7.83184255 -7 9 C-6.67 7.68 -6.34 6.36 -6 5 C-4.35 5 -2.7 5 -1 5 C-0.67 3.35 -0.34 1.7 0 0 Z " fill="#6F59C1" transform="translate(322,277)"/>
<path d="M0 0 C0.66 0 1.32 0 2 0 C2 1.32 2 2.64 2 4 C3.32 4 4.64 4 6 4 C6.33 3.34 6.66 2.68 7 2 C7.66 2 8.32 2 9 2 C9 3.32 9 4.64 9 6 C8.34 6 7.68 6 7 6 C7.33 7.32 7.66 8.64 8 10 C7.01 10 6.02 10 5 10 C5 9.34 5 8.68 5 8 C4.34 8 3.68 8 3 8 C0 2.25 0 2.25 0 0 Z " fill="#7650C5" transform="translate(133,272)"/>
<path d="M0 0 C2 1 4 2 6 3 C4.66511872 6.59391114 3.03977277 9.75490696 1 13 C0.01 12.34 -0.98 11.68 -2 11 C-2 10.01 -2 9.02 -2 8 C-1.360625 7.87625 -0.72125 7.7525 -0.0625 7.625 C0.618125 7.41875 1.29875 7.2125 2 7 C2.33 6.34 2.66 5.68 3 5 C2.01 4.34 1.02 3.68 0 3 C0 2.01 0 1.02 0 0 Z " fill="#8365E6" transform="translate(313,274)"/>
<path d="M0 0 C0.99 0.495 0.99 0.495 2 1 C3.2906127 7.38572718 3.0835853 13.61888657 2 20 C-0.56780471 16.1584024 -0.22688882 12.1860825 -0.125 7.75 C-0.11597656 7.00492188 -0.10695313 6.25984375 -0.09765625 5.4921875 C-0.07418358 3.66131941 -0.03831525 1.83061762 0 0 Z " fill="#6A50B6" transform="translate(267,247)"/>
<path d="M0 0 C0.99 0.33 1.98 0.66 3 1 C4.14466615 4.43399845 4 6.30785102 4 10 C4.99 10.33 5.98 10.66 7 11 C6.67 11.99 6.34 12.98 6 14 C2.91971052 11.22773947 1.16983589 8.99693928 0 5 C-0.125 2.1875 -0.125 2.1875 0 0 Z " fill="#7247B8" transform="translate(208,370)"/>
<path d="M0 0 C1.18851563 0.00902344 2.37703125 0.01804687 3.6015625 0.02734375 C4.51679688 0.03894531 5.43203125 0.05054688 6.375 0.0625 C6.705 0.7225 7.035 1.3825 7.375 2.0625 C-0.545 2.5575 -0.545 2.5575 -8.625 3.0625 C-8.625 2.4025 -8.625 1.7425 -8.625 1.0625 C-5.74084117 -0.37957941 -3.20778472 -0.03144887 0 0 Z " fill="#6949AD" transform="translate(173.625,358.9375)"/>
<path d="M0 0 C0 0.66 0 1.32 0 2 C-4.82986038 4.89791623 -8.50992887 5.66447289 -14 5 C-17.5 4 -17.5 4 -20 3 C-16.77768446 1.38884223 -13.37064902 2.03920024 -9.82421875 2.16015625 C-6.2684875 1.95851727 -3.46193605 0 0 0 Z " fill="#CDF5E5" transform="translate(450,297)"/>
<path d="M0 0 C4.44395887 2.96263924 4.88583388 6.93982885 6 12 C6.1875 15.625 6.1875 15.625 6 18 C5.34 18 4.68 18 4 18 C4 15.03 4 12.06 4 9 C3.34 9 2.68 9 2 9 C1.34 6.03 0.68 3.06 0 0 Z " fill="#6A4CB3" transform="translate(326,237)"/>
<path d="M0 0 C1 3 1 3 -1 10 C-6.61 10 -12.22 10 -18 10 C-18 9.67 -18 9.34 -18 9 C-13.05 9 -8.1 9 -3 9 C-2.67 7.68 -2.34 6.36 -2 5 C-1.3530635 3.3255761 -0.69040574 1.65697379 0 0 Z " fill="#7057BF" transform="translate(114,378)"/>
<path d="M0 0 C2 2 2 2 2.1953125 4.1640625 C2.17210938 4.97617187 2.14890625 5.78828125 2.125 6.625 C2.10695313 7.44226563 2.08890625 8.25953125 2.0703125 9.1015625 C2.03550781 10.04128906 2.03550781 10.04128906 2 11 C0.68 11.33 -0.64 11.66 -2 12 C-2 8.37 -2 4.74 -2 1 C-1.34 0.67 -0.68 0.34 0 0 Z " fill="#8260EB" transform="translate(78,325)"/>
<path d="M0 0 C0.66 0.33 1.32 0.66 2 1 C1.67 1.66 1.34 2.32 1 3 C-1.58317727 3.39465208 -4.14188281 3.50806152 -6.75 3.65625 C-7.4925 3.7696875 -8.235 3.883125 -9 4 C-9.33 4.66 -9.66 5.32 -10 6 C-10.99 5.67 -11.98 5.34 -13 5 C-13.33 4.01 -13.66 3.02 -14 2 C-13.15695313 1.93941406 -12.31390625 1.87882812 -11.4453125 1.81640625 C-10.34960938 1.73261719 -9.25390625 1.64882813 -8.125 1.5625 C-7.03445312 1.48128906 -5.94390625 1.40007812 -4.8203125 1.31640625 C-2.05271029 1.16998297 -2.05271029 1.16998297 0 0 Z " fill="#755AD4" transform="translate(247,276)"/>
<path d="M0 0 C3.63 0 7.26 0 11 0 C12.60031344 3.20062687 11.03173691 5.72271806 10 9 C9 6 9 6 10 2 C6.7 2 3.4 2 0 2 C-0.33 2.66 -0.66 3.32 -1 4 C-0.67 2.68 -0.34 1.36 0 0 Z " fill="#674D9F" transform="translate(320,266)"/>
<path d="M0 0 C5.77807024 -0.2358396 10.51324804 0.13216954 16 2 C16 2.33 16 2.66 16 3 C13.36 3 10.72 3 8 3 C7.67 3.66 7.34 4.32 7 5 C6.67 4.01 6.34 3.02 6 2 C4.02 2 2.04 2 0 2 C0 1.34 0 0.68 0 0 Z " fill="#634FAE" transform="translate(235,227)"/>
<path d="M0 0 C0 2.83967231 -0.40267181 5.23735711 -1 8 C-1.66 8 -2.32 8 -3 8 C-3 10.31 -3 12.62 -3 15 C-2.34 15 -1.68 15 -1 15 C-1 16.98 -1 18.96 -1 21 C-4.55231223 16.98598141 -4.48911673 13.89310005 -4.37109375 8.70703125 C-3.84106056 4.84057864 -2.52628545 2.92101755 0 0 Z " fill="#5D439A" transform="translate(145,360)"/>
<path d="M0 0 C0 0.66 0 1.32 0 2 C3.3 1.67 6.6 1.34 10 1 C6.67098317 3.21934455 5.51206363 3.27129898 1.625 3.25 C0.68914062 3.25515625 -0.24671875 3.2603125 -1.2109375 3.265625 C-4.14329762 2.98635261 -6.33404925 2.22149016 -9 1 C-9 0.67 -9 0.34 -9 0 C-5.62182575 -0.84454356 -3.32534757 -1.10844919 0 0 Z " fill="#43B185" transform="translate(436,297)"/>
<path d="M0 0 C0 3.3 0 6.6 0 10 C-0.33 10 -0.66 10 -1 10 C-1.33 7.69 -1.66 5.38 -2 3 C-6.29 2.67 -10.58 2.34 -15 2 C-15 1.67 -15 1.34 -15 1 C-9.92928099 0.28832014 -5.11791642 -0.10662326 0 0 Z " fill="#7E62B8" transform="translate(343,378)"/>
<path d="M0 0 C0.625 1.8125 0.625 1.8125 1 4 C0.01 5.485 0.01 5.485 -1 7 C0.32 7 1.64 7 3 7 C2.67 7.99 2.34 8.98 2 10 C-1.3 10.33 -4.6 10.66 -8 11 C-7.236875 10.29875 -6.47375 9.5975 -5.6875 8.875 C-3.03409522 6.03647396 -1.55999257 3.53050949 0 0 Z " fill="#6348B1" transform="translate(171,265)"/>
<path d="M0 0 C4.0042343 3.49087093 5.62671065 5.64951939 6 11 C3.5625 10 3.5625 10 1 8 C0.23618519 5.27285838 0.14057352 2.85832822 0 0 Z " fill="#7856C8" transform="translate(261,237)"/>
<path d="M0 0 C-1.34796405 4.41151871 -3.22723417 6.38808519 -7 9 C-7.33 9 -7.66 9 -8 9 C-8 7.35 -8 5.7 -8 4 C-7.34 3.67 -6.68 3.34 -6 3 C-5.525625 2.484375 -5.05125 1.96875 -4.5625 1.4375 C-3 0 -3 0 0 0 Z " fill="#674EB3" transform="translate(187,375)"/>
<path d="M0 0 C0.99 0.33 1.98 0.66 3 1 C3.99 0.67 4.98 0.34 6 0 C9 4.75 9 4.75 9 7 C2.29787234 5.06382979 2.29787234 5.06382979 0 2 C0 1.34 0 0.68 0 0 Z " fill="#654CAF" transform="translate(144,381)"/>
<path d="M0 0 C1.2065625 0.0309375 1.2065625 0.0309375 2.4375 0.0625 C2.4375 1.3825 2.4375 2.7025 2.4375 4.0625 C1.7775 4.0625 1.1175 4.0625 0.4375 4.0625 C0.1075 5.0525 -0.2225 6.0425 -0.5625 7.0625 C-1.2225 7.0625 -1.8825 7.0625 -2.5625 7.0625 C-2.94383299 5.0710944 -3.27575582 3.06970923 -3.5625 1.0625 C-2.5625 0.0625 -2.5625 0.0625 0 0 Z " fill="#7155D1" transform="translate(65.5625,315.9375)"/>
<path d="M0 0 C0.66 1.32 1.32 2.64 2 4 C1.01 4.495 1.01 4.495 0 5 C-0.28875 5.66 -0.5775 6.32 -0.875 7 C-1.24625 7.66 -1.6175 8.32 -2 9 C-3.32 9.33 -4.64 9.66 -6 10 C-4.02 6.7 -2.04 3.4 0 0 Z " fill="#6E44B8" transform="translate(186,362)"/>
<path d="M0 0 C0.99 0 1.98 0 3 0 C2.67 2.64 2.34 5.28 2 8 C0.68 7.67 -0.64 7.34 -2 7 C-1.34 5.68 -0.68 4.36 0 3 C-0.66 3 -1.32 3 -2 3 C-1 1 -1 1 0 0 Z " fill="#7D5AED" transform="translate(319,274)"/>
<path d="M0 0 C2 3.75 2 3.75 2 6 C2.66 6.66 3.32 7.32 4 8 C3.67 8.99 3.34 9.98 3 11 C0.08772731 7.71195019 -1.49701212 5.40114397 -2 1 C-1.34 0.67 -0.68 0.34 0 0 Z " fill="#41B082" transform="translate(419,283)"/>
<path d="M0 0 C1.70884005 1.62339805 3.37446717 3.29319053 5 5 C5 5.66 5 6.32 5 7 C2.03 6.67 -0.94 6.34 -4 6 C-2.68 5.67 -1.36 5.34 0 5 C-0.2784375 4.0409375 -0.2784375 4.0409375 -0.5625 3.0625 C-0.706875 2.381875 -0.85125 1.70125 -1 1 C-0.67 0.67 -0.34 0.34 0 0 Z " fill="#866BDD" transform="translate(150,343)"/>
<path d="M0 0 C2.31 0 4.62 0 7 0 C6.1875 1.9375 6.1875 1.9375 5 4 C4.01 4.33 3.02 4.66 2 5 C1.01 4.34 0.02 3.68 -1 3 C-0.67 2.01 -0.34 1.02 0 0 Z " fill="#7558D7" transform="translate(310,330)"/>
<path d="M0 0 C0.77772405 2.33317216 1.42415568 4.61435923 2 7 C1.01 7.66 0.02 8.32 -1 9 C-1.99 8.67 -2.98 8.34 -4 8 C-2.87548273 5.0280615 -1.77706209 2.66559313 0 0 Z " fill="#7F8288" transform="translate(421,318)"/>
<path d="M0 0 C0.33 0.66 0.66 1.32 1 2 C0.67 2.66 0.34 3.32 0 4 C-0.99 4 -1.98 4 -3 4 C-3 4.99 -3 5.98 -3 7 C-4.98 7.33 -6.96 7.66 -9 8 C-9 7.34 -9 6.68 -9 6 C-7.03125 4.4921875 -7.03125 4.4921875 -4.5 2.875 C-3.6646875 2.33617187 -2.829375 1.79734375 -1.96875 1.2421875 C-1.3190625 0.83226562 -0.669375 0.42234375 0 0 Z " fill="#614AAB" transform="translate(179,372)"/>
<path d="M0 0 C1.98 0.66 3.96 1.32 6 2 C5.071875 3.1446875 5.071875 3.1446875 4.125 4.3125 C1.94402948 6.99625809 1.94402948 6.99625809 0 10 C-1.125 3.375 -1.125 3.375 0 0 Z " fill="#654BBA" transform="translate(153,361)"/>
<path d="M0 0 C2.55803184 3.83704776 4.34505724 7.75712791 3.625 12.4375 C3.41875 12.953125 3.2125 13.46875 3 14 C-0.00559652 8.99067246 -0.29341888 5.67276511 0 0 Z " fill="#644FB2" transform="translate(79,327)"/>
<path d="M0 0 C-3.79692186 2.82561627 -6.18569279 4.56638908 -11 4 C-4.45384615 -1.48461538 -4.45384615 -1.48461538 0 0 Z " fill="#644FAE" transform="translate(170,282)"/>
<path d="M0 0 C0.33 0.66 0.66 1.32 1 2 C0.34 2.66 -0.32 3.32 -1 4 C-1.99 5.485 -1.99 5.485 -3 7 C-3.66 7 -4.32 7 -5 7 C-6.125 3.25 -6.125 3.25 -5 1 C-2.4375 0.375 -2.4375 0.375 0 0 Z " fill="#8463EE" transform="translate(232,277)"/>
<path d="M0 0 C0.66 0 1.32 0 2 0 C2 0.66 2 1.32 2 2 C3.98 1.34 5.96 0.68 8 0 C4.375 4.875 4.375 4.875 1 6 C0.4465236 3.92446352 0 2.15634036 0 0 Z " fill="#684EB9" transform="translate(254,278)"/>
<path d="M0 0 C0.66 0.33 1.32 0.66 2 1 C1.67 3.64 1.34 6.28 1 9 C0.34 9 -0.32 9 -1 9 C-1.33 9.66 -1.66 10.32 -2 11 C-2.28571429 3.57142857 -2.28571429 3.57142857 0 0 Z " fill="#6C4FBF" transform="translate(289,243)"/>
<path d="M0 0 C-2.77079887 3.80984844 -6.62868145 4.06840752 -11 5 C-4.75324675 -1.58441558 -4.75324675 -1.58441558 0 0 Z " fill="#6652B3" transform="translate(296,229)"/>
<path d="M0 0 C1.32 0.66 2.64 1.32 4 2 C-2.4 6.06153846 -2.4 6.06153846 -5.4375 5.75 C-5.953125 5.5025 -6.46875 5.255 -7 5 C-4 3 -4 3 0 3 C0 2.01 0 1.02 0 0 Z " fill="#6A54B0" transform="translate(175,383)"/>
<path d="M0 0 C0.66 0 1.32 0 2 0 C2 0.66 2 1.32 2 2 C5.96 2.33 9.92 2.66 14 3 C14 3.33 14 3.66 14 4 C9.38 4 4.76 4 0 4 C0 2.68 0 1.36 0 0 Z " fill="#6A48AA" transform="translate(222,376)"/>
<path d="M0 0 C0.66 0 1.32 0 2 0 C2.36552803 1.41377782 2.71695495 2.83120576 3.0625 4.25 C3.25972656 5.03890625 3.45695312 5.8278125 3.66015625 6.640625 C4.01497267 9.10394822 3.76877544 10.65604132 3 13 C2.49242138 11.58603098 1.99425075 10.16868271 1.5 8.75 C1.08234375 7.56664062 1.08234375 7.56664062 0.65625 6.359375 C0 4 0 4 0 0 Z " fill="#693AA2" transform="translate(70,346)"/>
<path d="M0 0 C0.66 0.33 1.32 0.66 2 1 C1.34 4.3 0.68 7.6 0 11 C-0.66 10.67 -1.32 10.34 -2 10 C-1.85950482 8.52031676 -1.71245174 7.04125484 -1.5625 5.5625 C-1.48128906 4.73878906 -1.40007812 3.91507812 -1.31640625 3.06640625 C-1 1 -1 1 0 0 Z " fill="#694DB7" transform="translate(124,340)"/>
<path d="M0 0 C5.65394631 -0.34615998 9.03006806 0.56574762 14 3 C11.42130631 4.28934684 10.34000765 3.82144674 7.5625 3.1875 C6.78003906 3.01605469 5.99757812 2.84460938 5.19140625 2.66796875 C3 2 3 2 0 0 Z " fill="#6E59AE" transform="translate(176,330)"/>
<path d="M0 0 C0.33 0 0.66 0 1 0 C1.144375 1.11375 1.28875 2.2275 1.4375 3.375 C1.78372035 6.82142047 1.78372035 6.82142047 3 9 C1.5625 11.625 1.5625 11.625 0 14 C-0.66 13.67 -1.32 13.34 -2 13 C-1.34 8.71 -0.68 4.42 0 0 Z " fill="#C1EAD8" transform="translate(460,274)"/>
<path d="M0 0 C0.33 0 0.66 0 1 0 C1.33 1.98 1.66 3.96 2 6 C2.66 5.34 3.32 4.68 4 4 C4.33 4.99 4.66 5.98 5 7 C4.01 7.33 3.02 7.66 2 8 C2 9.65 2 11.3 2 13 C-0.39692342 9.16492253 -0.63714778 5.42679713 -1 1 C-0.67 0.67 -0.34 0.34 0 0 Z " fill="#6850BE" transform="translate(257,248)"/>
<path d="M0 0 C-1.7015625 0.680625 -1.7015625 0.680625 -3.4375 1.375 C-7.04721692 2.57095806 -7.04721692 2.57095806 -8 5 C-8.66 5 -9.32 5 -10 5 C-10 3.35 -10 1.7 -10 0 C-3.375 -1.125 -3.375 -1.125 0 0 Z " fill="#704FBD" transform="translate(301,238)"/>
<path d="M0 0 C0 3 0 3 -1.3125 4.60546875 C-1.869375 5.12753906 -2.42625 5.64960938 -3 6.1875 C-3.556875 6.71730469 -4.11375 7.24710938 -4.6875 7.79296875 C-5.120625 8.19128906 -5.55375 8.58960938 -6 9 C-6.66 8.67 -7.32 8.34 -8 8 C-7.04578192 6.85073734 -6.08647955 5.70569459 -5.125 4.5625 C-4.59132813 3.92441406 -4.05765625 3.28632813 -3.5078125 2.62890625 C-2 1 -2 1 0 0 Z " fill="#A9A9A9" transform="translate(14,159)"/>
<path d="M0 0 C0.99 0.33 1.98 0.66 3 1 C0 4 -3 7 -6 10 C-6 8.68 -6 7.36 -6 6 C-5.34 6 -4.68 6 -4 6 C-4 5.34 -4 4.68 -4 4 C-3.34 4 -2.68 4 -2 4 C-1.34 2.68 -0.68 1.36 0 0 Z " fill="#BDBDBC" transform="translate(235,132)"/>
<path d="M0 0 C1.95216435 3.90432869 2.50639991 6.72213252 3 11 C1.68 11 0.36 11 -1 11 C-0.67 7.37 -0.34 3.74 0 0 Z " fill="#704AC6" transform="translate(93,376)"/>
<path d="M0 0 C0.99 0.33 1.98 0.66 3 1 C3 3.64 3 6.28 3 9 C2.01 9.33 1.02 9.66 0 10 C0 6.7 0 3.4 0 0 Z " fill="#5B3190" transform="translate(307,330)"/>
<path d="M0 0 C0.66 0 1.32 0 2 0 C1.5206753 4.31392226 0.2542015 6.16569547 -3 9 C-3.33 7.02 -3.66 5.04 -4 3 C-2.68 3.33 -1.36 3.66 0 4 C0 2.68 0 1.36 0 0 Z " fill="#6751B9" transform="translate(265,269)"/>
<path d="M0 0 C0.66 0 1.32 0 2 0 C2.042721 1.66611905 2.04063832 3.33382885 2 5 C1 6 1 6 -1.06640625 6.09765625 C-1.89011719 6.08605469 -2.71382813 6.07445312 -3.5625 6.0625 C-4.38878906 6.05347656 -5.21507812 6.04445313 -6.06640625 6.03515625 C-6.70449219 6.02355469 -7.34257812 6.01195312 -8 6 C-8 5.67 -8 5.34 -8 5 C-5.36 4.67 -2.72 4.34 0 4 C0 2.68 0 1.36 0 0 Z " fill="#594494" transform="translate(331,257)"/>
<path d="M0 0 C0.99 0 1.98 0 3 0 C3.33 2.31 3.66 4.62 4 7 C2.0625 6.25 2.0625 6.25 0 5 C-0.8125 2.9375 -0.8125 2.9375 -1 1 C-0.67 0.67 -0.34 0.34 0 0 Z " fill="#8562EF" transform="translate(251,278)"/>
<path d="M0 0 C0.66 0.33 1.32 0.66 2 1 C2 2.65 2 4.3 2 6 C1.01 6.33 0.02 6.66 -1 7 C-1 6.34 -1 5.68 -1 5 C-1.99 4.67 -2.98 4.34 -4 4 C-2.68 3.67 -1.36 3.34 0 3 C0 2.01 0 1.02 0 0 Z " fill="#6A4CC2" transform="translate(188,355)"/>
<path d="M0 0 C0 0.66 0 1.32 0 2 C-4.01804691 2.84098656 -7.01803543 3.05404945 -11 2 C-11 1.67 -11 1.34 -11 1 C-7.27569643 0.30710631 -3.78916254 -0.11144596 0 0 Z " fill="#775CCE" transform="translate(177,352)"/>
<path d="M0 0 C3.96 0 7.92 0 12 0 C12 0.33 12 0.66 12 1 C7.71 1.66 3.42 2.32 -1 3 C-0.67 2.01 -0.34 1.02 0 0 Z " fill="#6541A9" transform="translate(162,339)"/>
<path d="M0 0 C1.32 0.33 2.64 0.66 4 1 C3.67 2.98 3.34 4.96 3 7 C2.01 6.34 1.02 5.68 0 5 C-0.1875 2.375 -0.1875 2.375 0 0 Z " fill="#7650C8" transform="translate(279,271)"/>
<path d="M0 0 C1.65 0.33 3.3 0.66 5 1 C4.67 1.66 4.34 2.32 4 3 C3.34 3 2.68 3 2 3 C1.34 4.32 0.68 5.64 0 7 C-0.66 6.67 -1.32 6.34 -2 6 C-2 5.34 -2 4.68 -2 4 C-1.01 4 -0.02 4 1 4 C0.67 2.68 0.34 1.36 0 0 Z " fill="#614AB2" transform="translate(155,341)"/>
<path d="M0 0 C0.33 0 0.66 0 1 0 C1.36923077 7.50769231 1.36923077 7.50769231 -0.5 10 C-0.995 10.33 -1.49 10.66 -2 11 C-1.125 3.375 -1.125 3.375 0 0 Z " fill="#634DAA" transform="translate(112,334)"/>
<path d="M0 0 C0.99 0.33 1.98 0.66 3 1 C1.68 3.64 0.36 6.28 -1 9 C-1.33 9 -1.66 9 -2 9 C-1.125 2.25 -1.125 2.25 0 0 Z " fill="#DCFAEE" transform="translate(417,263)"/>
<path d="M0 0 C1.65 0 3.3 0 5 0 C4.01 0.33 3.02 0.66 2 1 C2.33 2.65 2.66 4.3 3 6 C2.01 6 1.02 6 0 6 C0 4.02 0 2.04 0 0 Z " fill="#6F48B4" transform="translate(287,262)"/>
<path d="M0 0 C0 0.99 0 1.98 0 3 C-2.31 3.33 -4.62 3.66 -7 4 C-7 3.34 -7 2.68 -7 2 C-4 0 -4 0 0 0 Z " fill="#6F4DBB" transform="translate(232,229)"/>
<path d="M0 0 C0.66 0.99 1.32 1.98 2 3 C-2.75 7 -2.75 7 -5 7 C-3.70700306 4.11562221 -2.34058637 2.12780579 0 0 Z " fill="#ADADAD" transform="translate(283,84)"/>
<path d="M0 0 C0.99 0.33 1.98 0.66 3 1 C3 2.65 3 4.3 3 6 C2.01 6 1.02 6 0 6 C0 4.02 0 2.04 0 0 Z " fill="#7D5BF1" transform="translate(275,314)"/>
<path d="M0 0 C1.65 0 3.3 0 5 0 C0.25 4.875 0.25 4.875 -2 6 C-2.33 5.01 -2.66 4.02 -3 3 C-2.01 3 -1.02 3 0 3 C0 2.01 0 1.02 0 0 Z " fill="#DEF9EE" transform="translate(422,257)"/>
</svg>
